<?xml version="1.0" encoding="UTF-8"?>
<svg id="Layer_1" data-name="Layer 1" xmlns="http://www.w3.org/2000/svg" xmlns:xlink="http://www.w3.org/1999/xlink" viewBox="0 0 1920 1080">
  <defs>
    <style>
      .cls-1 {
        fill: #fff;
      }

      .cls-2 {
        fill: #5349d7;
      }

      .cls-3 {
        fill: #ffe000;
      }

      .cls-4 {
        clip-path: url(#clippath-1);
      }

      .cls-5 {
        fill: #7771ff;
      }
    </style>
    <clipPath id="clippath-1">
      <rect class="cls-2" x="-12" y="-17.26" width="1937" height="1117.26"/>
    </clipPath>
  </defs>
  <g>
    <rect class="cls-2" x="-12" y="-17.26" width="1937" height="1117.26"/>
    <g class="cls-4">
      <rect class="cls-2" x="-12" y="-23.46" width="1937" height="1120.36"/>
      <rect class="cls-2" x="-10.72" y="-22.68" width="1933.85" height="1115.44"/>
      <rect class="cls-2" x="-10.72" y="-22.68" width="1933.85" height="1115.44"/>
    </g>
  </g>
  <path class="cls-5" d="M1188.22,332.93c-12.01-22.34-33.79-41.98-59.28-46.62-25.59-4.66-51.31,6.16-74.31,18.3-34.25,18.08-67.81,40.93-87.07,74.53-2.5,4.36-4.69,10.04-1.77,14.14,2.56,3.61,8.06,3.95,12.04,2.01,3.98-1.94,6.83-5.55,9.67-8.95,29.25-35.12,91.52-79.44,140.15-64.37,31.66,9.81,38.68,48.52,41.34,77.25,1.42,15.35,.55,30.7-1.74,46.74-1.07,7.45-2.39,14.88-4.1,22.21-.29,1.25-.6,2.51-.91,3.75-.05,.18-.1,.35-.17,.6-.49,1.75-.99,3.51-1.52,5.25-1.05,3.48-2.21,6.93-3.45,10.35-1.24,3.41-2.58,6.79-4.02,10.12-.72,1.66-1.49,3.3-2.23,4.96-.15,.34-.27,.6-.36,.8-.34,.6-.69,1.2-1.04,1.8-3.9,6.6-7.78,13.2-12.27,19.42-2.12,2.93-4.34,5.79-6.67,8.57-1.17,1.39-2.36,2.77-3.57,4.12-.44,.49-.9,.98-1.35,1.47-.13,.14-.26,.29-.38,.42-.06,.07-.12,.13-.18,.19,.05-.05,.07-.08,.11-.12-.06,.06-.12,.13-.17,.17-5.71,5.62-11.82,10.84-18.32,15.54-1.72,1.25-3.47,2.45-5.25,3.62-.79,.52-1.58,1.03-2.38,1.53-.21,.13-.93,.56-1.4,.84-.13,.08-.25,.14-.29,.16-.83,.45-1.65,.92-2.48,1.36-1.66,.89-3.34,1.75-5.03,2.56-3.81,1.84-7.7,3.49-11.67,4.95-1.76,.65-3.53,1.26-5.31,1.82-.82,.26-1.65,.5-2.47,.75-7.25,1.79-14.62,2.95-21.91,4.54-4.64,1.01-9.45,2.39-13.71,4.58-3.12,1.61-8.09,5.08-8.95,8.65-1.35,5.61,6.48,11.75,10.92,13.94,4.76,2.35,10.03,3.35,15.29,3.59,1,.05,1.99,.04,2.97,.03-.48,.19-.95,.42-1.44,.61-2.92,1.13-5.88,2.15-8.87,3.06-.59,.18-1.18,.36-1.78,.53-.24,.06-.53,.13-.95,.23-1.39,.33-2.79,.66-4.19,.96-6.05,1.26-12.21,1.95-18.35,2.57-8.13,.82-13.62,2.57-19.34,8.58-1.45,1.52-1.85,4.9-.79,6.71,2.55,4.38,5.41,7.45,10.25,9.33,3.91,1.52,7.98,1.95,12.11,1.96,1.31,0,2.61-.07,3.91-.12-3.13,2.45-5.54,5.58-6.16,9.77-.11,.73-.01,1.53,0,2.29-.16-.05-.51,.71-.23,1.56,.02,.06,1.64,3.47,.67,1.76,.68,1.19,.15,.94,1.69,3,3.57,4.76,8.66,6.32,14.22,6.14,.13,2.74,1.01,5.48,2.47,7.61,5,7.31,14.44,8.07,22.32,5.87,.05,1.58,.38,3.1,1.12,4.4,0-.08,.02-.16,.03-.24,.25,.6,.54,1.19,.87,1.75,2.38,4,7.97,7.55,12.91,6.34,46.4-11.37,78.13-78.6,98.53-114.5,4.07-7.16,5.21-9.21,8.87-16.17,2.33-4.42,4.52-8.91,6.59-13.46,4.3-9.5,8.03-19.26,11.16-29.2,6.34-20.17,10.5-40.95,11.83-62.06,2.65-42.22-4-87.26-24.22-124.85Z"/>
  <path class="cls-2" d="M1067.43,625.22c-3.31-1.25-6.1,.27-9.08,1.72-3.24,1.59-6.54,3.02-9.93,4.26-6.18,2.27-12.63,4.17-19.17,5.08-5.58,.78-11.39,.94-16.86-.61-2.75-.78-5.17-1.97-7.77-3.09-1.63-.7-4.36-1.74-5.2,.64-1.84,5.16,8.21,9.35,11.78,10.39,6.12,1.78,12.75,1.95,19.05,1.13,7-.91,13.85-2.8,20.47-5.22,3.71-1.35,7.36-2.89,10.92-4.59,3.24-1.54,6.61-3.19,7.31-7.03,.23-1.24-.34-2.23-1.52-2.68Z"/>
  <path class="cls-2" d="M1077.44,652c-1.37-1.72-3.39-1.93-5.32-1.06-3.63,1.63-6.89,4.19-10.46,6-3.4,1.73-6.91,3.18-10.52,4.42-3.51,1.2-7.18,2.33-10.88,2.75-1.75,.2-3.6,.25-5.35,.02-1.93-.26-3.72-.86-5.63-.19-1.04,.37-2.03,1.56-1.56,2.75,1.66,4.2,7.03,4.67,11,4.67,4.5,0,9.02-.96,13.34-2.13,4.36-1.18,8.58-2.76,12.7-4.6,4.23-1.89,8.98-3.99,12.36-7.21,1.47-1.41,1.56-3.86,.32-5.42Z"/>
  <path class="cls-2" d="M1094.39,662.22c-3.72,.36-6.13,3.37-8.99,5.47-2.7,1.97-5.56,3.71-8.56,5.18-2.76,1.35-5.63,2.42-8.59,3.26-1.67,.47-3.29,.88-4.92,1.51-1.71,.66-3.52,1.2-4.43,2.96-.51,1-.35,2.02,.37,2.86,2.42,2.81,7.85,1.62,10.93,.83,3.69-.95,7.26-2.28,10.71-3.87,3.21-1.47,6.28-3.24,9.16-5.28,3.34-2.37,7.36-4.97,7.87-9.35,.21-1.79-1.8-3.72-3.55-3.55Z"/>
  <path class="cls-5" d="M1030.74,686.03c-9.02-5.46-16.34-5.76-26.58-4.05-7.73,1.29-15.52,2.51-23.36,2.99-1.82,.11-3.64,.17-5.46,.23-.54,.02-.93,.03-1.24,.04-.79,0-1.57-.03-2.36-.05-3.97-.12-7.94-.38-11.89-.78-.66-.07-1.31-.2-1.97-.27,1.21-.33,2.43-.65,3.63-1.04,6.36-2.05,12.49-5.04,17.54-9.51,4.71-4.17,12.26-14.31,8.73-20.73-2.24-4.08-9.49-6.69-13.86-7.61-5.94-1.26-12.31-1.34-18.33-1.03-9.46,.49-18.89,1.53-28.38,1.76-1.09-.04-2.19-.05-3.28-.1-2.38-.1-4.75-.25-7.12-.46-5.35-.47-10.68-1.2-15.96-2.18-2.35-.44-4.7-.93-7.03-1.46-1.17-.27-2.33-.56-3.49-.84-.06-.02-.23-.06-.42-.1-.67-.19-1.7-.47-2-.57-1.15-.35-2.29-.71-3.43-1.08-2.57-.83-5.12-1.72-7.65-2.68-9.54-3.6-18.77-7.94-27.65-12.93-.07-.04-.16-.1-.26-.15,.07,.04,.1,.07,.18,.11-.09-.06-.19-.12-.28-.18-.19-.12-.41-.25-.61-.38-.71-.45-1.43-.89-2.14-1.35-1.94-1.25-3.86-2.53-5.76-3.85-3.78-2.62-7.46-5.39-11.04-8.27-7.59-6.12-14.55-12.91-21.54-19.7-.63-.61-1.26-1.23-1.88-1.85-.18-.22-.4-.5-.71-.87-1.45-1.79-2.95-3.54-4.39-5.33-2.88-3.6-5.65-7.3-8.31-11.06-2.67-3.77-5.23-7.62-7.69-11.53-1.23-1.96-2.42-3.94-3.61-5.93-.17-.28-.29-.48-.41-.68-.8-1.42-1.6-2.86-2.37-4.29-4.55-8.41-8.65-17.08-12.45-25.86-8.18-18.89-14.38-37.43-17.76-56.72-6.71-38.21-3.4-79.94,19.07-111.38,12.59-17.61,30.55-34.31,51.92-40.11,22.81-6.2,45.83,5.33,64.32,18.11,11.86,8.19,22.51,17.99,31.87,28.93,10.17,11.89,18.52,24.94,29.88,35.77,4.73,4.5,14.11-.68,12.54-7.15-3.69-15.17-11.92-27.79-21.7-39.83-9.56-11.76-20.36-22.74-32.36-32.02-12.33-9.54-26.1-17.29-40.71-22.61-7.6-3.93-15.25-6.21-24.17-6.35-5.48-.88-11.03-1.41-16.63-1.54-28.65-.66-57.54,7.35-78.93,27.16-21.88,20.27-34.2,47.5-40.84,76.2-12.22,52.84-5.3,110.28,12.06,161.15,8.68,25.44,20.73,49.52,35.25,72.12,7.16,11.15,14.99,21.87,23.44,32.07,4.05,4.89,8.24,9.66,12.58,14.3,6.82,7.3,8.9,9.44,16.28,16.85,37.02,37.2,98.4,109,159.08,107.43,6.47-.17,12.13-6.38,13.71-12.08,.22-.8,.38-1.62,.48-2.44,.04,.1,.08,.19,.12,.29,.48-1.84,.37-3.82-.1-5.77,10.4,.05,21.71-4.03,25.4-14.67,1.07-3.1,1.23-6.76,.48-10.16,6.88-1.64,12.6-5.26,15.38-12.28,1.21-3.04,.64-2.56,1.07-4.25-.61,2.42,.23-2.3,.24-2.39,.05-1.14-.62-1.95-.81-1.84-.23-.93-.38-1.95-.76-2.81-2.17-4.93-6.16-7.96-10.82-9.92,1.61-.37,3.22-.71,4.83-1.16,5.07-1.4,9.91-3.29,14.19-6.46,5.3-3.92,7.78-8.64,9.45-14.86,.69-2.58-.93-6.58-3.21-7.96Z"/>
  <path class="cls-2" d="M1029.74,702.39c.01-.45-.36-1.02-.84-1.1-2.94-.48-4.57-.91-7.32,.77-2.62,1.6-5.12,3.33-7.83,4.77-5.53,2.95-11.49,5.17-17.57,6.65-5.96,1.45-12.14,1.91-18.26,1.66-3.09-.13-6.17-.45-9.21-1.02-3.03-.57-6.19-1.52-9.29-1.32-1.98,.13-3.59,2.8-1.79,4.31,4.87,4.1,12.56,4.77,18.67,5.34,7.03,.65,14.01,.15,20.96-.97,6.82-1.1,13.35-3.17,19.59-6.14,3.06-1.45,6.15-3.08,8.9-5.07,1.55-1.12,2.99-2.23,3.69-4.05,.53-1.36,.26-2.45,.29-3.84Z"/>
  <path class="cls-2" d="M1013.06,742.45c-.14-.4-.45-.83-.91-.91-4.25-.75-7.35,2.58-11.24,3.8-4.56,1.43-9.36,1.65-14.11,1.67-5.58,.01-11.26-.03-16.79-.86-2.76-.42-5.46-1.11-8.16-1.81-2.21-.57-4.96-1.72-7.07-.43-.43,.26-.81,.79-.76,1.32,.52,5.49,10.31,7.13,14.57,7.93,6.27,1.17,12.66,1.53,19.03,1.51,5.38-.01,10.98-.36,16.12-2.08,4.15-1.39,11.27-4.62,9.32-10.13Z"/>
  <path class="cls-2" d="M991.78,773c-1.68-1.16-2.53-2.28-4.72-3.08-2.39-.88-5.08-.8-7.6-.91-4.68-.21-9.38-.55-14.01-1.34-4.55-.77-8.92-1.97-13.39-3.04-1.35-.32-9.61-3.49-9.76-.55-.18,3.64,6.13,6.75,8.87,7.99,4.31,1.94,9.02,3.16,13.67,3.94,4.7,.79,9.45,1.27,14.21,1.57,2.53,.16,5.16,.43,7.64-.27,2.42-.68,3.3-1.81,5.1-2.96,.52-.33,.49-1.01,0-1.35Z"/>
  <g>
    <path class="cls-1" d="M786.93,423.19c.34,1.67,.44,3.52,.29,5.53-.15,2.02-.57,4.01-1.26,5.99-.68,1.98-1.64,3.86-2.85,5.65-1.22,1.79-2.7,3.27-4.45,4.45-.95,.65-1.87,1.19-2.77,1.63-.89,.44-1.8,.82-2.71,1.14-.91,.32-1.86,.62-2.85,.88-.99,.27-2.03,.53-3.14,.8,2.81,1.64,5.08,3.35,6.79,5.13,1.71,1.79,2.91,3.98,3.59,6.56,.34,1.14,.51,2.38,.51,3.71s-.15,2.67-.46,4.02c-.3,1.35-.78,2.66-1.43,3.94-.65,1.27-1.46,2.4-2.45,3.39-1.67,1.67-3.7,2.99-6.08,3.94-2.38,.95-4.84,1.66-7.39,2.14-2.55,.48-5.02,.78-7.42,.91-2.4,.13-4.43,.22-6.1,.26h-21.17l-2.22-81.18,22.31-1.2c1.37,0,2.84,.01,4.42,.03,1.58,.02,3.29,.11,5.14,.26,1.84,.15,3.83,.4,5.96,.74,2.13,.34,4.43,.82,6.9,1.43,2.43,.61,4.74,1.54,6.9,2.79s4.09,2.76,5.76,4.51c1.67,1.75,3.04,3.69,4.11,5.82,1.06,2.13,1.75,4.38,2.05,6.73Zm-41.48,17.69c.42,0,1.26,.06,2.51,.17,1.26,.12,2.69,.14,4.31,.09s3.3-.25,5.05-.57c1.75-.32,3.34-.89,4.76-1.71,1.43-.82,2.56-1.93,3.39-3.34,.84-1.41,1.18-3.25,1.03-5.53-.19-2.09-.84-3.78-1.94-5.08-1.1-1.29-2.6-2.26-4.48-2.91-1.88-.65-4.09-1.03-6.62-1.14-2.53-.11-5.32-.04-8.36,.23l.34,19.8Zm1.08,30.35c.57,.04,1.4,.09,2.48,.14s2.26,.05,3.54-.03c1.27-.08,2.57-.23,3.88-.46,1.31-.23,2.47-.63,3.48-1.2,1.01-.57,1.81-1.32,2.4-2.26,.59-.93,.81-2.12,.66-3.57-.23-2.05-.94-3.58-2.14-4.59-1.2-1.01-2.62-1.69-4.28-2.06-1.65-.36-3.39-.49-5.22-.4-1.82,.09-3.48,.22-4.96,.37l.17,14.03Z"/>
    <path class="cls-1" d="M835.54,459.99h-25.39l-7.82,23.28-19.85-5.48,29.89-76.33,16.49,1.08,30.98,74.05-15.46,5.65-8.84-22.25Zm-4.45-9.93l-9.93-23.22-7.7,23.22h17.63Z"/>
    <path class="cls-1" d="M911.59,468.89l-.69,14.03-47.12-1.54v-11.58l31.32-49.18h-36.91v-19.28l57.73,.86v15.29l-28.75,51.06,24.42,.34Z"/>
    <path class="cls-1" d="M967.21,459.99h-25.39l-7.82,23.28-19.85-5.48,29.89-76.33,16.49,1.08,30.98,74.05-15.46,5.65-8.84-22.25Zm-4.45-9.93l-9.93-23.22-7.7,23.22h17.63Z"/>
    <path class="cls-1" d="M1052.16,442.14c-1.22,1.26-2.62,2.35-4.19,3.28-1.58,.93-3.22,1.73-4.93,2.4-1.71,.67-3.45,1.2-5.22,1.6-1.77,.4-3.45,.69-5.05,.88l21.62,21.85-11.12,9.98-26.19-29.72,.63,29.72-21.17,1.14-2.22-81.18,22.31-1.2c2.74,0,6.06,.09,9.96,.28,3.9,.19,8.38,.84,13.43,1.94,2.24,.49,4.41,1.41,6.5,2.74,2.09,1.33,3.96,2.94,5.62,4.82,1.65,1.88,3.01,3.99,4.08,6.33,1.06,2.34,1.69,4.76,1.88,7.27,.11,1.67,.14,3.25,.09,4.73-.06,1.48-.29,2.95-.68,4.39-.4,1.45-1.02,2.88-1.85,4.31-.84,1.43-2,2.9-3.48,4.42Zm-13.35-12.38c-.27-2.2-.94-4.02-2.03-5.45-1.08-1.43-2.57-2.53-4.45-3.31-1.88-.78-4.14-1.26-6.76-1.43-2.63-.17-5.61-.12-8.96,.14v21.28c.53,0,1.48,.06,2.85,.17,1.37,.11,2.91,.16,4.62,.14,1.71-.02,3.48-.18,5.31-.48,1.83-.3,3.47-.87,4.93-1.71,1.46-.84,2.63-2,3.48-3.48,.86-1.48,1.19-3.44,1-5.88Z"/>
  </g>
  <g>
    <path class="cls-1" d="M718.41,597.88c-.49,0-1-.04-1.53-.13-2.71-.53-4.75-1.87-6.13-4-.98-1.55-1.47-3.33-1.47-5.33,0-2.22,2.84-15.77,8.53-40.65,.93-4.98,2.29-11.04,4.07-18.19,1.11-4.62,2.49-9.15,4.13-13.59,1.11-3.38,2.55-6.55,4.33-9.53,2.53-3.64,5.58-5.46,9.13-5.46,3.15,0,6.09,1.49,8.8,4.46,2.35,3.06,4.2,6.44,5.53,10.13l.13,.33c4.58,11.37,8.57,22.9,12,34.59,3.07,10.04,6.26,20.01,9.6,29.92v.07c.93,2.31,1.4,4.55,1.4,6.73,0,4.04-1.87,6.93-5.6,8.66-1.33,.53-2.62,.8-3.86,.8-2.18,0-4.22-.77-6.13-2.3-1.91-1.53-3.35-3.31-4.33-5.33s-1.74-4.06-2.3-6.13c-.56-2.07-1.37-3.57-2.43-4.5-.71-.62-1.69-.93-2.93-.93-.67,0-1.4,.09-2.2,.27-1.33,.22-2.67,.33-4,.33-2.04,0-4.73-.29-8.06-.87-.71-.13-1.36-.2-1.93-.2-1.78,0-2.84,.98-3.2,2.93-.71,3.15-1.49,6.29-2.33,9.39-1.78,5.69-4.84,8.53-9.2,8.53Zm23.26-38.25c1.64,0,3.33-.27,5.06-.8-1.11-6.27-3.22-12.6-6.33-18.99-.36,1.2-.67,2.33-.93,3.4-1.11,4.13-1.82,6.69-2.13,7.66-.84,2.49-1.38,5.2-1.6,8.13,2.49,.4,4.46,.6,5.93,.6Z"/>
    <path class="cls-1" d="M803.18,598.48c-3.42,0-6.97-.4-10.66-1.2-3.91-.84-6.65-2.22-8.23-4.13-1.58-1.91-2.37-4.75-2.37-8.53,0-5.46,.24-13.93,.73-25.39l.4-10.39v-33.52c0-2.35,.22-4.66,.67-6.93,1.2-4.57,4.02-6.86,8.46-6.86h.93c3.24,0,6.55-.42,9.93-1.27,2-.31,3.93-.47,5.8-.47,7.15,0,13.82,2.52,19.99,7.56,6.17,5.04,9.8,12.61,10.86,22.69,.13,1.16,.2,2.31,.2,3.47,0,3.95-.73,7.82-2.2,11.6-.4,.89-.6,1.71-.6,2.47,0,.22,.07,.61,.2,1.17,.13,.56,.67,1.3,1.6,2.23,4.89,5.33,7.33,10.73,7.33,16.19,0,.22-.06,1.81-.17,4.77-.11,2.95-2.97,6.87-8.56,11.76-6.4,5.6-13.28,9.75-20.66,12.46-4.31,1.55-8.86,2.33-13.66,2.33Zm1.27-52.65c1.38,0,2.53-.18,3.47-.53l1.8-.33c3.02-.4,5.26-1.53,6.73-3.4,1.47-1.87,2.42-4.18,2.87-6.93,.18-.93,.27-1.87,.27-2.8,0-1.91-.48-3.99-1.43-6.23-.96-2.24-2.59-4.1-4.9-5.56-1.69-.98-3.42-1.47-5.2-1.47-4,0-6,1.49-6,4.46l.07,10.93v11.73c.84,.09,1.62,.13,2.33,.13Zm-.67,32.39c4.04-.76,7.84-2.03,11.4-3.83,3.55-1.8,6.91-4.32,10.06-7.56-2-1.29-3.8-1.93-5.4-1.93-.89,0-2.84,.58-5.86,1.73-3.02,1.16-6.18,1.91-9.46,2.27-1.07,.09-1.6,.82-1.6,2.2,0,.49-.02,1.01-.07,1.57-.05,.56-.07,1.14-.07,1.76,0,.31,.02,.77,.07,1.37,.04,.6,.35,1.41,.93,2.43Z"/>
    <path class="cls-1" d="M902.54,602.68c-2.27,0-4.44-.93-6.53-2.8-2.04-2.13-3.64-4.75-4.8-7.86l-9.33-19.66c-.49-1.15-1.1-2.05-1.83-2.7s-1.74-.97-3.03-.97h-.53c-2.4,0-3.6,1.02-3.6,3.06l.13,1.13c.49,3.25,.73,6.09,.73,8.53,0,2.62-.36,5.2-1.07,7.73-1.69,5.15-5,7.73-9.93,7.73-2.58,0-4.8-.91-6.66-2.73-1.73-1.69-2.78-3.93-3.13-6.73-.09-1.29-.13-2.58-.13-3.87l.07-3c0-1.11-.24-6.8-.73-17.06l-.2-5.26c-.31-4.89-.47-9.66-.47-14.33l.07-7.66c0-4.57-.2-9.09-.6-13.53l-.07-2c0-2.58,.6-6.02,1.8-10.33l.2-.73c1.24-4.17,3.95-6.26,8.13-6.26h.87c2.18,0,4.24-.29,6.2-.87,3.87-.93,7.46-1.4,10.8-1.4,8.4,0,16.24,2.51,23.52,7.53,4.8,3.46,8,7.93,9.6,13.39,.75,2.58,1.13,5.22,1.13,7.93,0,3.02-.47,6.13-1.4,9.33-2.09,7.46-5.82,13.86-11.2,19.19-1.42,1.33-2.13,2.6-2.13,3.8,0,1.02,.38,2.18,1.13,3.47,2.71,4.97,5.31,9.99,7.8,15.06l2.6,5.13c.71,1.33,1.31,2.71,1.8,4.13,.22,1.07,.33,2.06,.33,3,0,3.46-1.6,6.24-4.8,8.33-1.6,.84-3.18,1.27-4.73,1.27Zm-27.19-54.78l1.07-.07c4.18-.53,7.83-2.47,10.96-5.8,3.13-3.33,4.85-7.13,5.16-11.4v-.47c0-3.07-1.36-5.2-4.07-6.4-3.55-1.47-7.22-2.51-11-3.13l-1.27-.07c-3.51,0-5.31,2.09-5.4,6.26l-.07,5.4c.04,.8,.07,1.62,.07,2.46h.33c0,.89,.02,1.76,.07,2.6v2l-.07,4.46c0,1.69,.39,2.8,1.17,3.33,.78,.53,1.79,.8,3.03,.8Z"/>
    <path class="cls-1" d="M926.2,597.88c-.49,0-1-.04-1.53-.13-2.71-.53-4.75-1.87-6.13-4-.98-1.55-1.47-3.33-1.47-5.33,0-2.22,2.84-15.77,8.53-40.65,.93-4.98,2.29-11.04,4.07-18.19,1.11-4.62,2.49-9.15,4.13-13.59,1.11-3.38,2.55-6.55,4.33-9.53,2.53-3.64,5.58-5.46,9.13-5.46,3.15,0,6.09,1.49,8.8,4.46,2.35,3.06,4.2,6.44,5.53,10.13l.13,.33c4.58,11.37,8.57,22.9,12,34.59,3.07,10.04,6.26,20.01,9.6,29.92v.07c.93,2.31,1.4,4.55,1.4,6.73,0,4.04-1.87,6.93-5.6,8.66-1.33,.53-2.62,.8-3.86,.8-2.18,0-4.22-.77-6.13-2.3-1.91-1.53-3.35-3.31-4.33-5.33s-1.74-4.06-2.3-6.13c-.56-2.07-1.37-3.57-2.43-4.5-.71-.62-1.69-.93-2.93-.93-.67,0-1.4,.09-2.2,.27-1.33,.22-2.67,.33-4,.33-2.04,0-4.73-.29-8.06-.87-.71-.13-1.36-.2-1.93-.2-1.78,0-2.84,.98-3.2,2.93-.71,3.15-1.49,6.29-2.33,9.39-1.78,5.69-4.84,8.53-9.2,8.53Zm23.26-38.25c1.64,0,3.33-.27,5.06-.8-1.11-6.27-3.22-12.6-6.33-18.99-.36,1.2-.67,2.33-.93,3.4-1.11,4.13-1.82,6.69-2.13,7.66-.84,2.49-1.38,5.2-1.6,8.13,2.49,.4,4.46,.6,5.93,.6Z"/>
    <path class="cls-1" d="M1002.56,597.88c-5.15,0-8.91-1.75-11.26-5.26-1.42-2.09-2.13-4.49-2.13-7.2,0-2.18,.47-4.55,1.4-7.13,1.78-4.49,4.11-8.64,7-12.46,8.53-11.73,16.99-23.5,25.39-35.32,.31-.44,.64-.87,1-1.27,.67-.8,1.28-1.68,1.83-2.63,.55-.96,.88-2.14,.97-3.57h-1.33c-4.31,0-8.51,.38-12.59,1.13l-6.46,.87c-1.07,.09-2.13,.22-3.2,.4-1.73,.31-3.44,.49-5.13,.53-5.73-.13-9.02-2.8-9.86-8l-.07-1.53c0-1.95,.55-3.78,1.67-5.46,2.09-3.2,10.51-5.64,25.26-7.33,6.49-.62,12.99-1.07,19.53-1.33,4.62-.27,7.4-.4,8.33-.4,1.64,0,3.27,.31,4.86,.93,3.51,1.42,5.93,3.66,7.26,6.73,.67,1.55,1,3.2,1,4.93s-.31,3.38-.93,5.2c-1.38,3.33-3.15,6.37-5.33,9.13l-.27,.47-12.33,17.19-17.93,25.12c-.62,.71-.93,1.42-.93,2.13,0,.53,.13,1.2,.4,2h24.52l1.33-.07c2.35,0,4.66,.45,6.93,1.33,4.4,2.18,6.6,5.42,6.6,9.73,0,.58-.05,1.18-.13,1.8-.84,4.75-3.82,7.58-8.93,8.46-.98,.09-1.96,.13-2.93,.13h-14.46l-6.93-.07c-6.93,0-13.86,.24-20.79,.73l-1.33,.07Z"/>
    <path class="cls-1" d="M1071.74,597.88c-.49,0-1-.04-1.53-.13-2.71-.53-4.75-1.87-6.13-4-.98-1.55-1.47-3.33-1.47-5.33,0-2.22,2.84-15.77,8.53-40.65,.93-4.98,2.29-11.04,4.07-18.19,1.11-4.62,2.49-9.15,4.13-13.59,1.11-3.38,2.55-6.55,4.33-9.53,2.53-3.64,5.58-5.46,9.13-5.46,3.15,0,6.09,1.49,8.8,4.46,2.35,3.06,4.2,6.44,5.53,10.13l.13,.33c4.58,11.37,8.57,22.9,12,34.59,3.07,10.04,6.26,20.01,9.6,29.92v.07c.93,2.31,1.4,4.55,1.4,6.73,0,4.04-1.87,6.93-5.6,8.66-1.33,.53-2.62,.8-3.86,.8-2.18,0-4.22-.77-6.13-2.3-1.91-1.53-3.35-3.31-4.33-5.33s-1.74-4.06-2.3-6.13c-.56-2.07-1.37-3.57-2.43-4.5-.71-.62-1.69-.93-2.93-.93-.67,0-1.4,.09-2.2,.27-1.33,.22-2.67,.33-4,.33-2.04,0-4.73-.29-8.06-.87-.71-.13-1.36-.2-1.93-.2-1.78,0-2.84,.98-3.2,2.93-.71,3.15-1.49,6.29-2.33,9.39-1.78,5.69-4.84,8.53-9.2,8.53Zm23.26-38.25c1.64,0,3.33-.27,5.06-.8-1.11-6.27-3.22-12.6-6.33-18.99-.36,1.2-.67,2.33-.93,3.4-1.11,4.13-1.82,6.69-2.13,7.66-.84,2.49-1.38,5.2-1.6,8.13,2.49,.4,4.46,.6,5.93,.6Z"/>
    <path class="cls-1" d="M1185.16,602.68c-2.27,0-4.44-.93-6.53-2.8-2.04-2.13-3.64-4.75-4.8-7.86l-9.33-19.66c-.49-1.15-1.1-2.05-1.83-2.7s-1.74-.97-3.03-.97h-.53c-2.4,0-3.6,1.02-3.6,3.06l.13,1.13c.49,3.25,.73,6.09,.73,8.53,0,2.62-.36,5.2-1.07,7.73-1.69,5.15-5,7.73-9.93,7.73-2.58,0-4.8-.91-6.66-2.73-1.73-1.69-2.78-3.93-3.13-6.73-.09-1.29-.13-2.58-.13-3.87l.07-3c0-1.11-.24-6.8-.73-17.06l-.2-5.26c-.31-4.89-.47-9.66-.47-14.33l.07-7.66c0-4.57-.2-9.09-.6-13.53l-.07-2c0-2.58,.6-6.02,1.8-10.33l.2-.73c1.24-4.17,3.95-6.26,8.13-6.26h.87c2.18,0,4.24-.29,6.2-.87,3.87-.93,7.46-1.4,10.8-1.4,8.4,0,16.24,2.51,23.52,7.53,4.8,3.46,8,7.93,9.6,13.39,.75,2.58,1.13,5.22,1.13,7.93,0,3.02-.47,6.13-1.4,9.33-2.09,7.46-5.82,13.86-11.2,19.19-1.42,1.33-2.13,2.6-2.13,3.8,0,1.02,.38,2.18,1.13,3.47,2.71,4.97,5.31,9.99,7.8,15.06l2.6,5.13c.71,1.33,1.31,2.71,1.8,4.13,.22,1.07,.33,2.06,.33,3,0,3.46-1.6,6.24-4.8,8.33-1.6,.84-3.18,1.27-4.73,1.27Zm-27.19-54.78l1.07-.07c4.18-.53,7.83-2.47,10.96-5.8,3.13-3.33,4.85-7.13,5.16-11.4v-.47c0-3.07-1.36-5.2-4.07-6.4-3.55-1.47-7.22-2.51-11-3.13l-1.27-.07c-3.51,0-5.31,2.09-5.4,6.26l-.07,5.4c.04,.8,.07,1.62,.07,2.46h.33c0,.89,.02,1.76,.07,2.6v2l-.07,4.46c0,1.69,.39,2.8,1.17,3.33,.78,.53,1.79,.8,3.03,.8Z"/>
  </g>
  <ellipse class="cls-3" cx="1142.9" cy="438.94" rx="80.87" ry="50.68"/>
  <g>
    <path class="cls-2" d="M1106.51,421.5c3.2,5.29,3.28,10.87,.24,16.73-4.31,6.1-9.29,8.61-14.94,7.53,.35,3.18,1.15,9.02,2.4,17.53-5.34,1.04-8.98,1.67-10.92,1.88-2.1-14.79-3.59-26.59-4.48-35.4-.63-4.91-.95-7.74-.95-8.48,5.11-3.16,11.01-4.67,17.71-4.55,4.63,.11,8.28,1.7,10.94,4.77Zm-16.38,15.34c5.63,.47,8.29-1.02,7.99-4.48-.21-1.44-.96-2.34-2.27-2.69-2.42-.41-4.56-.07-6.42,1.04,.32,2.63,.55,4.68,.71,6.13Z"/>
    <path class="cls-2" d="M1129.07,416.59c.35,.47,1.08,2.46,2.18,5.97,3.9,14.2,7.64,26.72,11.23,37.57,0,.35-1.45,1.15-4.36,2.39-2.91,1.24-4.71,1.86-5.4,1.85-.4-.73-1.46-3.79-3.18-9.17-1.87-.15-4.98-.69-9.32-1.62-.43,2.2-.96,5.37-1.6,9.52-1.49,.04-5.08-.83-10.77-2.58-.01-.63,.92-5.17,2.78-13.61,2.54-11.37,4.54-21.04,6.01-29.01,.38-.35,2.26-.63,5.66-.85,3.4-.21,5.65-.36,6.77-.45Zm-5.57,15.49c-.69,4.95-1.33,9.1-1.91,12.45,2.27,.39,3.97,.54,5.1,.46-.87-4.16-1.48-7.03-1.81-8.59s-.79-3-1.37-4.31Z"/>
    <path class="cls-2" d="M1170.74,420.23c1.8,.97,2.99,2.35,3.57,4.13,.52,1.75,.72,3.44,.6,5.08,0,2.39-.63,4.56-1.89,6.52-1.29,2.31-3.73,5.35-7.33,9.14,3.17,2.91,5.53,5.37,7.1,7.36,1.56,2,2.47,3.29,2.71,3.87-3.3,3.6-5.96,5.73-7.97,6.39-2.34-3.38-4.39-6.12-6.13-8.19-1.84-2.23-3.82-3.83-5.93-4.8-.05,1.47-.07,6.22-.07,14.25-5.9-.17-9.45-.83-10.65-1.98,0-4.04,.22-16.94,.67-38.71,5.51-2.24,8.74-3.45,9.68-3.6,2.83-.79,4.73-1.18,5.71-1.18,4.04-.28,7.35,.3,9.94,1.75Zm-12.94,8.5c-.74,.13-1.64,.59-2.71,1.38,.13,.93,.25,4.88,.35,11.85,2.41-2.26,4.37-4.19,5.86-5.79,1.78-2.31,1.99-4.37,.62-6.19-.91-1.19-2.28-1.61-4.11-1.26Z"/>
    <path class="cls-2" d="M1198.74,416.59c.35,.47,1.08,2.46,2.18,5.97,3.9,14.2,7.64,26.72,11.23,37.57,0,.35-1.45,1.15-4.36,2.39-2.91,1.24-4.71,1.86-5.4,1.85-.4-.73-1.46-3.79-3.18-9.17-1.87-.15-4.98-.69-9.32-1.62-.43,2.2-.96,5.37-1.6,9.52-1.49,.04-5.08-.83-10.77-2.58-.01-.63,.92-5.17,2.78-13.61,2.54-11.37,4.54-21.04,6.01-29.01,.38-.35,2.26-.63,5.66-.85,3.4-.21,5.65-.36,6.77-.45Zm-5.57,15.49c-.69,4.95-1.33,9.1-1.91,12.45,2.27,.39,3.97,.54,5.1,.46-.87-4.16-1.48-7.03-1.81-8.59s-.79-3-1.37-4.31Z"/>
  </g>
  <g>
    <path class="cls-5" d="M1920-.26V305.33c-44.57,39.2-103.05,62.98-167.1,62.98-139.8,0-253.13-113.34-253.13-253.13,0-41.58,10.03-80.83,27.81-115.44h392.42Z"/>
    <path class="cls-5" d="M528.41,0c-163.54,83.13-238.26,212.58-349.4,288.47-52.84,36.07-118.29,50.86-179.01,55.06V0H528.41Z"/>
  </g>
</svg>