<?xml version="1.0" encoding="UTF-8"?>
<svg id="Layer_2" data-name="Layer 2" xmlns="http://www.w3.org/2000/svg" viewBox="0 0 516.75 509.58">
  <defs>
    <style>
      .cls-1 {
        fill: #ffe000;
      }

      .cls-2 {
        fill: #ffc900;
      }
    </style>
  </defs>
  <g id="Capa_1" data-name="Capa 1">
    <g>
      <g>
        <path class="cls-2" d="M491.98,47.73c-12.01-22.34-33.79-41.98-59.28-46.62-25.59-4.66-51.31,6.16-74.31,18.3-34.25,18.08-67.81,40.93-87.07,74.53-2.5,4.36-4.69,10.04-1.77,14.14,2.56,3.61,8.06,3.95,12.04,2.01,3.98-1.94,6.83-5.55,9.67-8.95,29.25-35.12,91.52-79.44,140.15-64.37,31.66,9.81,38.68,48.52,41.34,77.25,1.42,15.35,.55,30.7-1.74,46.74-1.07,7.45-2.39,14.88-4.1,22.21-.29,1.25-.6,2.51-.91,3.75-.05,.18-.1,.35-.17,.6-.49,1.75-.99,3.51-1.52,5.25-1.05,3.48-2.21,6.93-3.45,10.35-1.24,3.41-2.58,6.79-4.02,10.12-.72,1.66-1.49,3.3-2.23,4.96-.15,.34-.27,.6-.36,.8-.34,.6-.69,1.2-1.04,1.8-3.9,6.6-7.78,13.2-12.27,19.42-2.12,2.93-4.34,5.79-6.67,8.57-1.17,1.39-2.36,2.77-3.57,4.12-.44,.49-.9,.98-1.35,1.47-.13,.14-.26,.29-.38,.42-.06,.07-.12,.13-.18,.19,.05-.05,.07-.08,.11-.12-.06,.06-.12,.13-.17,.17-5.71,5.62-11.82,10.84-18.32,15.54-1.72,1.25-3.47,2.45-5.25,3.62-.79,.52-1.58,1.03-2.38,1.53-.21,.13-.93,.56-1.4,.84-.13,.08-.25,.14-.29,.16-.83,.45-1.65,.92-2.48,1.36-1.66,.89-3.34,1.75-5.03,2.56-3.81,1.84-7.7,3.49-11.67,4.95-1.76,.65-3.53,1.26-5.31,1.82-.82,.26-1.65,.5-2.47,.75-7.25,1.79-14.62,2.95-21.91,4.54-4.64,1.01-9.45,2.39-13.71,4.58-3.12,1.61-8.09,5.08-8.95,8.65-1.35,5.61,6.48,11.75,10.92,13.94,4.76,2.35,10.03,3.35,15.29,3.59,1,.05,1.99,.04,2.97,.03-.48,.19-.95,.42-1.44,.61-2.92,1.13-5.88,2.15-8.87,3.06-.59,.18-1.18,.36-1.78,.53-.24,.06-.53,.13-.95,.23-1.39,.33-2.79,.66-4.19,.96-6.05,1.26-12.21,1.95-18.35,2.57-8.13,.82-13.62,2.57-19.34,8.58-1.45,1.52-1.85,4.9-.79,6.71,2.55,4.38,5.41,7.45,10.25,9.33,3.91,1.52,7.98,1.95,12.11,1.96,1.31,0,2.61-.07,3.91-.12-3.13,2.45-5.54,5.58-6.16,9.77-.11,.73-.01,1.53,0,2.29-.16-.05-.51,.71-.23,1.56,.02,.06,1.64,3.47,.67,1.76,.68,1.19,.15,.94,1.69,3,3.57,4.76,8.66,6.32,14.22,6.14,.13,2.74,1.01,5.48,2.47,7.61,5,7.31,14.44,8.07,22.32,5.87,.05,1.58,.38,3.1,1.12,4.4,0-.08,.02-.16,.03-.24,.25,.6,.54,1.19,.87,1.75,2.38,4,7.97,7.55,12.91,6.34,46.4-11.37,78.13-78.6,98.53-114.5,4.07-7.16,5.21-9.21,8.87-16.17,2.33-4.42,4.52-8.91,6.59-13.46,4.3-9.5,8.03-19.26,11.16-29.2,6.34-20.17,10.5-40.95,11.83-62.06,2.65-42.22-4-87.26-24.22-124.85Z"/>
        <path class="cls-1" d="M371.19,340.01c-3.31-1.25-6.1,.27-9.08,1.72-3.24,1.59-6.54,3.02-9.93,4.26-6.18,2.27-12.63,4.17-19.17,5.08-5.58,.78-11.39,.94-16.86-.61-2.75-.78-5.17-1.97-7.77-3.09-1.63-.7-4.36-1.74-5.2,.64-1.84,5.16,8.21,9.35,11.78,10.39,6.12,1.78,12.75,1.95,19.05,1.13,7-.91,13.85-2.8,20.47-5.22,3.71-1.35,7.36-2.89,10.92-4.59,3.24-1.54,6.61-3.19,7.31-7.03,.23-1.24-.34-2.23-1.52-2.68Z"/>
        <path class="cls-1" d="M381.21,366.79c-1.37-1.72-3.39-1.93-5.32-1.06-3.63,1.63-6.89,4.19-10.46,6-3.4,1.73-6.91,3.18-10.52,4.42-3.51,1.2-7.18,2.33-10.88,2.75-1.75,.2-3.6,.25-5.35,.02-1.93-.26-3.72-.86-5.63-.19-1.04,.37-2.03,1.56-1.56,2.75,1.66,4.2,7.03,4.67,11,4.67,4.5,0,9.02-.96,13.34-2.13,4.36-1.18,8.58-2.76,12.7-4.6,4.23-1.89,8.98-3.99,12.36-7.21,1.47-1.41,1.56-3.86,.32-5.42Z"/>
        <path class="cls-1" d="M398.16,377.01c-3.72,.36-6.13,3.37-8.99,5.47-2.7,1.97-5.56,3.71-8.56,5.18-2.76,1.35-5.63,2.42-8.59,3.26-1.67,.47-3.29,.88-4.92,1.51-1.71,.66-3.52,1.2-4.43,2.96-.51,1-.35,2.02,.37,2.86,2.42,2.81,7.85,1.62,10.93,.83,3.69-.95,7.26-2.28,10.71-3.87,3.21-1.47,6.28-3.24,9.16-5.28,3.34-2.37,7.36-4.97,7.87-9.35,.21-1.79-1.8-3.72-3.55-3.55Z"/>
      </g>
      <g>
        <path class="cls-2" d="M334.51,400.82c-9.02-5.46-16.34-5.76-26.58-4.05-7.73,1.29-15.52,2.51-23.36,2.99-1.82,.11-3.64,.17-5.46,.23-.54,.02-.93,.03-1.24,.04-.79,0-1.57-.03-2.36-.05-3.97-.12-7.94-.38-11.89-.78-.66-.07-1.31-.2-1.97-.27,1.21-.33,2.43-.65,3.63-1.04,6.36-2.05,12.49-5.04,17.54-9.51,4.71-4.17,12.26-14.31,8.73-20.73-2.24-4.08-9.49-6.69-13.86-7.61-5.94-1.26-12.31-1.34-18.33-1.03-9.46,.49-18.89,1.53-28.38,1.76-1.09-.04-2.19-.05-3.28-.1-2.38-.1-4.75-.25-7.12-.46-5.35-.47-10.68-1.2-15.96-2.18-2.35-.44-4.7-.93-7.03-1.46-1.17-.27-2.33-.56-3.49-.84-.06-.02-.23-.06-.42-.1-.67-.19-1.7-.47-2-.57-1.15-.35-2.29-.71-3.43-1.08-2.57-.83-5.12-1.72-7.65-2.68-9.54-3.6-18.77-7.94-27.65-12.93-.07-.04-.16-.1-.26-.15,.07,.04,.1,.07,.18,.11-.09-.06-.19-.12-.28-.18-.19-.12-.41-.25-.61-.38-.71-.45-1.43-.89-2.14-1.35-1.94-1.25-3.86-2.53-5.76-3.85-3.78-2.62-7.46-5.39-11.04-8.27-7.59-6.12-14.55-12.91-21.54-19.7-.63-.61-1.26-1.23-1.88-1.85-.18-.22-.4-.5-.71-.87-1.45-1.79-2.95-3.54-4.39-5.33-2.88-3.6-5.65-7.3-8.31-11.06-2.67-3.77-5.23-7.62-7.69-11.53-1.23-1.96-2.42-3.94-3.61-5.93-.17-.28-.29-.48-.41-.68-.8-1.42-1.6-2.86-2.37-4.29-4.55-8.41-8.65-17.08-12.45-25.86-8.18-18.89-14.38-37.43-17.76-56.72-6.71-38.21-3.4-79.94,19.07-111.38,12.59-17.61,30.55-34.31,51.92-40.11,22.81-6.2,45.83,5.33,64.32,18.11,11.86,8.19,22.51,17.99,31.87,28.93,10.17,11.89,18.52,24.94,29.88,35.77,4.73,4.5,14.11-.68,12.54-7.15-3.69-15.17-11.92-27.79-21.7-39.83-9.56-11.76-20.36-22.74-32.36-32.02-12.33-9.54-26.1-17.29-40.71-22.61-7.6-3.93-15.25-6.21-24.17-6.35-5.48-.88-11.03-1.41-16.63-1.54-28.65-.66-57.54,7.35-78.93,27.16C25.13,49.7,12.81,76.94,6.17,105.63c-12.22,52.84-5.3,110.28,12.06,161.15,8.68,25.44,20.73,49.52,35.25,72.12,7.16,11.15,14.99,21.87,23.44,32.07,4.05,4.89,8.24,9.66,12.58,14.3,6.82,7.3,8.9,9.44,16.28,16.85,37.02,37.2,98.4,109,159.08,107.43,6.47-.17,12.13-6.38,13.71-12.08,.22-.8,.38-1.62,.48-2.44,.04,.1,.08,.19,.12,.29,.48-1.84,.37-3.82-.1-5.77,10.4,.05,21.71-4.03,25.4-14.67,1.07-3.1,1.23-6.76,.48-10.16,6.88-1.64,12.6-5.26,15.38-12.28,1.21-3.04,.64-2.56,1.07-4.25-.61,2.42,.23-2.3,.24-2.39,.05-1.14-.62-1.95-.81-1.84-.23-.93-.38-1.95-.76-2.81-2.17-4.93-6.16-7.96-10.82-9.92,1.61-.37,3.22-.71,4.83-1.16,5.07-1.4,9.91-3.29,14.19-6.46,5.3-3.92,7.78-8.64,9.45-14.86,.69-2.58-.93-6.58-3.21-7.96Z"/>
        <path class="cls-1" d="M333.51,417.18c.01-.45-.36-1.02-.84-1.1-2.94-.48-4.57-.91-7.32,.77-2.62,1.6-5.12,3.33-7.83,4.77-5.53,2.95-11.49,5.17-17.57,6.65-5.96,1.45-12.14,1.91-18.26,1.66-3.09-.13-6.17-.45-9.21-1.02-3.03-.57-6.19-1.52-9.29-1.32-1.98,.13-3.59,2.8-1.79,4.31,4.87,4.1,12.56,4.77,18.67,5.34,7.03,.65,14.01,.15,20.96-.97,6.82-1.1,13.35-3.17,19.59-6.14,3.06-1.45,6.15-3.08,8.9-5.07,1.55-1.12,2.99-2.23,3.69-4.05,.53-1.36,.26-2.45,.29-3.84Z"/>
        <path class="cls-1" d="M316.83,457.24c-.14-.4-.45-.83-.91-.91-4.25-.75-7.35,2.58-11.24,3.8-4.56,1.43-9.36,1.65-14.11,1.67-5.58,.01-11.26-.03-16.79-.86-2.76-.42-5.46-1.11-8.16-1.81-2.21-.57-4.96-1.72-7.07-.43-.43,.26-.81,.79-.76,1.32,.52,5.49,10.31,7.13,14.57,7.93,6.27,1.17,12.66,1.53,19.03,1.51,5.38-.01,10.98-.36,16.12-2.08,4.15-1.39,11.27-4.62,9.32-10.13Z"/>
        <path class="cls-1" d="M295.55,487.79c-1.68-1.16-2.53-2.28-4.72-3.08-2.39-.88-5.08-.8-7.6-.91-4.68-.21-9.38-.55-14.01-1.34-4.55-.77-8.92-1.97-13.39-3.04-1.35-.32-9.61-3.49-9.76-.55-.18,3.64,6.13,6.75,8.87,7.99,4.31,1.94,9.02,3.16,13.67,3.94,4.7,.79,9.45,1.27,14.21,1.57,2.53,.16,5.16,.43,7.64-.27,2.42-.68,3.3-1.81,5.1-2.96,.52-.33,.49-1.01,0-1.35Z"/>
      </g>
    </g>
  </g>
</svg>