<?xml version="1.0" encoding="UTF-8"?>
<svg id="Layer_2" data-name="Layer 2" xmlns="http://www.w3.org/2000/svg" viewBox="0 0 542.81 524.34">
  <defs>
    <style>
      .cls-1 {
        fill: #5349d7;
      }

      .cls-2 {
        fill: #ffe000;
      }

      .cls-3 {
        fill: #7771ff;
      }

      .cls-4 {
        fill: #ffc900;
      }
    </style>
  </defs>
  <g id="Capa_1" data-name="Capa 1">
    <g>
      <g>
        <g>
          <path class="cls-2" d="M506.22,49.11c-12.36-22.98-34.77-43.2-60.99-47.97-26.33-4.79-52.8,6.34-76.46,18.83-35.24,18.61-69.77,42.11-89.59,76.69-2.57,4.49-4.82,10.33-1.83,14.55,2.64,3.71,8.29,4.06,12.39,2.06,4.1-1.99,7.03-5.71,9.95-9.21,30.1-36.13,94.17-81.74,144.2-66.24,32.57,10.09,39.8,49.92,42.54,79.49,1.46,15.79,.57,31.59-1.79,48.09-1.1,7.67-2.45,15.31-4.22,22.86-.3,1.29-.62,2.58-.94,3.86-.05,.18-.1,.36-.17,.62-.51,1.81-1.02,3.61-1.56,5.4-1.09,3.58-2.27,7.13-3.55,10.65-1.28,3.51-2.66,6.98-4.14,10.41-.74,1.71-1.54,3.4-2.29,5.1-.16,.35-.27,.62-.37,.83-.35,.62-.71,1.24-1.07,1.85-4.01,6.79-8,13.58-12.63,19.98-2.18,3.02-4.47,5.96-6.86,8.82-1.2,1.43-2.42,2.85-3.68,4.23-.46,.51-.92,1.01-1.39,1.51-.13,.14-.27,.3-.4,.43-.06,.07-.12,.13-.18,.2,.05-.05,.07-.08,.12-.13-.06,.07-.13,.13-.17,.18-5.88,5.79-12.16,11.15-18.85,15.99-1.77,1.28-3.57,2.52-5.4,3.72-.81,.53-1.63,1.06-2.45,1.57-.22,.14-.96,.58-1.44,.87-.14,.08-.26,.14-.3,.17-.85,.47-1.69,.94-2.55,1.4-1.71,.91-3.43,1.8-5.18,2.64-3.92,1.89-7.92,3.6-12,5.1-1.81,.67-3.63,1.29-5.47,1.88-.85,.27-1.7,.52-2.54,.78-7.46,1.84-15.05,3.03-22.54,4.67-4.77,1.04-9.73,2.46-14.1,4.71-3.21,1.65-8.32,5.23-9.21,8.9-1.39,5.77,6.67,12.09,11.24,14.34,4.9,2.41,10.32,3.44,15.73,3.69,1.03,.05,2.04,.04,3.06,.04-.5,.2-.98,.44-1.48,.63-3,1.16-6.05,2.21-9.12,3.15-.61,.18-1.22,.37-1.83,.54-.25,.06-.55,.13-.98,.23-1.43,.34-2.87,.68-4.31,.98-6.22,1.3-12.57,2-18.88,2.64-8.36,.85-14.01,2.64-19.9,8.83-1.49,1.57-1.9,5.04-.81,6.9,2.63,4.5,5.57,7.66,10.55,9.6,4.02,1.56,8.21,2.01,12.46,2.02,1.35,0,2.68-.07,4.02-.13-3.22,2.52-5.7,5.74-6.34,10.05-.11,.75-.01,1.58,0,2.35-.17-.05-.52,.73-.24,1.61,.02,.06,1.69,3.57,.69,1.81,.7,1.23,.15,.97,1.74,3.09,3.67,4.89,8.91,6.5,14.63,6.32,.13,2.82,1.04,5.64,2.54,7.83,5.15,7.52,14.86,8.3,22.97,6.04,.05,1.62,.39,3.19,1.15,4.53,.01-.08,.02-.17,.03-.25,.25,.62,.55,1.22,.9,1.8,2.45,4.12,8.2,7.77,13.28,6.52,47.74-11.7,80.39-80.87,101.39-117.82,4.19-7.37,5.36-9.48,9.13-16.63,2.39-4.55,4.65-9.17,6.78-13.85,4.43-9.77,8.26-19.81,11.48-30.05,6.52-20.75,10.81-42.13,12.17-63.85,2.72-43.44-4.11-89.78-24.92-128.46Z"/>
          <path class="cls-4" d="M381.94,349.85c-3.41-1.28-6.28,.27-9.34,1.77-3.33,1.63-6.73,3.1-10.22,4.38-6.36,2.34-13,4.29-19.72,5.23-5.74,.8-11.72,.97-17.34-.63-2.83-.81-5.32-2.03-8-3.18-1.68-.72-4.48-1.79-5.36,.66-1.9,5.31,8.45,9.62,12.12,10.69,6.3,1.83,13.12,2.01,19.6,1.16,7.2-.94,14.25-2.88,21.06-5.37,3.82-1.39,7.57-2.97,11.24-4.72,3.33-1.59,6.8-3.28,7.53-7.23,.23-1.28-.35-2.3-1.56-2.76Z"/>
          <path class="cls-4" d="M392.25,377.41c-1.41-1.77-3.49-1.99-5.47-1.09-3.74,1.68-7.09,4.31-10.76,6.18-3.5,1.78-7.11,3.28-10.83,4.54-3.61,1.23-7.39,2.4-11.19,2.83-1.81,.2-3.7,.26-5.51,.02-1.98-.26-3.83-.89-5.79-.19-1.07,.38-2.09,1.6-1.6,2.83,1.71,4.32,7.23,4.8,11.32,4.8,4.63,0,9.28-.99,13.73-2.19,4.49-1.21,8.83-2.84,13.07-4.73,4.35-1.94,9.24-4.1,12.71-7.42,1.52-1.45,1.61-3.97,.33-5.57Z"/>
          <path class="cls-4" d="M409.68,387.92c-3.83,.37-6.3,3.47-9.25,5.63-2.77,2.03-5.72,3.81-8.81,5.33-2.84,1.39-5.8,2.49-8.84,3.35-1.72,.49-3.39,.9-5.06,1.55-1.76,.68-3.62,1.23-4.55,3.04-.53,1.03-.36,2.08,.38,2.94,2.49,2.9,8.07,1.66,11.24,.85,3.79-.97,7.47-2.35,11.02-3.99,3.3-1.52,6.46-3.34,9.42-5.44,3.44-2.44,7.57-5.11,8.1-9.62,.21-1.84-1.85-3.83-3.65-3.65Z"/>
        </g>
        <g>
          <path class="cls-2" d="M344.19,412.42c-9.28-5.61-16.81-5.93-27.35-4.17-7.96,1.33-15.97,2.59-24.03,3.07-1.87,.11-3.74,.18-5.61,.24-.56,.02-.96,.03-1.28,.04-.81,0-1.62-.03-2.43-.05-4.09-.12-8.17-.39-12.24-.81-.68-.07-1.35-.2-2.02-.28,1.25-.34,2.5-.67,3.74-1.07,6.55-2.11,12.86-5.19,18.05-9.79,4.85-4.29,12.61-14.72,8.98-21.33-2.31-4.2-9.77-6.88-14.26-7.83-6.11-1.29-12.66-1.38-18.86-1.06-9.74,.5-19.43,1.57-29.2,1.81-1.13-.04-2.25-.06-3.38-.1-2.45-.1-4.89-.26-7.33-.47-5.51-.48-10.99-1.23-16.42-2.24-2.42-.45-4.83-.95-7.23-1.5-1.2-.28-2.4-.58-3.59-.87-.07-.02-.23-.06-.43-.11-.69-.19-1.74-.49-2.06-.58-1.18-.36-2.36-.73-3.53-1.11-2.64-.86-5.27-1.77-7.87-2.75-9.81-3.7-19.31-8.17-28.46-13.3-.07-.04-.17-.1-.27-.16,.07,.05,.11,.07,.18,.12-.1-.06-.2-.12-.29-.18-.2-.12-.42-.26-.63-.4-.74-.46-1.47-.92-2.21-1.39-2-1.28-3.97-2.61-5.92-3.96-3.89-2.7-7.68-5.54-11.36-8.51-7.81-6.3-14.97-13.29-22.16-20.27-.65-.63-1.29-1.26-1.93-1.91-.18-.23-.42-.51-.73-.89-1.5-1.84-3.04-3.64-4.52-5.49-2.96-3.71-5.81-7.51-8.55-11.38-2.75-3.88-5.39-7.84-7.91-11.87-1.27-2.02-2.49-4.06-3.72-6.1-.17-.29-.29-.49-.42-.7-.83-1.46-1.64-2.94-2.44-4.42-4.68-8.66-8.9-17.58-12.81-26.61-8.41-19.44-14.79-38.51-18.28-58.36-6.9-39.32-3.5-82.26,19.62-114.6,12.96-18.12,31.44-35.3,53.42-41.27,23.47-6.38,47.16,5.48,66.18,18.63,12.2,8.43,23.16,18.51,32.79,29.77,10.47,12.23,19.05,25.66,30.74,36.8,4.86,4.63,14.52-.7,12.9-7.36-3.8-15.61-12.26-28.6-22.33-40.99-9.83-12.1-20.95-23.4-33.29-32.95-12.69-9.81-26.85-17.79-41.89-23.26-7.82-4.05-15.69-6.39-24.87-6.54-5.64-.91-11.35-1.45-17.11-1.58-29.48-.68-59.21,7.56-81.21,27.94C25.85,51.14,13.18,79.16,6.35,108.69c-12.57,54.37-5.46,113.47,12.41,165.82,8.93,26.17,21.33,50.95,36.27,74.21,7.37,11.47,15.42,22.5,24.12,33,4.17,5.03,8.48,9.94,12.94,14.71,7.01,7.52,9.15,9.71,16.75,17.34,38.09,38.27,101.25,112.16,163.69,110.54,6.65-.17,12.48-6.57,14.1-12.43,.23-.82,.39-1.67,.49-2.51,.04,.1,.08,.2,.12,.3,.49-1.89,.38-3.93-.1-5.93,10.7,.05,22.34-4.15,26.14-15.09,1.11-3.19,1.27-6.95,.49-10.45,7.08-1.69,12.97-5.41,15.83-12.64,1.24-3.13,.66-2.63,1.1-4.37-.63,2.49,.24-2.37,.24-2.46,.06-1.17-.64-2.01-.83-1.89-.24-.96-.39-2.01-.78-2.89-2.23-5.07-6.34-8.19-11.13-10.2,1.66-.38,3.32-.73,4.97-1.19,5.21-1.44,10.2-3.39,14.61-6.65,5.45-4.04,8.01-8.89,9.72-15.29,.71-2.65-.96-6.77-3.31-8.19Z"/>
          <path class="cls-4" d="M343.16,429.26c.01-.47-.37-1.05-.86-1.13-3.02-.5-4.7-.94-7.54,.79-2.69,1.64-5.26,3.42-8.05,4.91-5.69,3.03-11.82,5.32-18.08,6.84-6.13,1.49-12.49,1.97-18.79,1.71-3.18-.13-6.35-.46-9.48-1.05-3.11-.58-6.37-1.56-9.56-1.36-2.04,.13-3.69,2.88-1.84,4.44,5.01,4.22,12.92,4.91,19.21,5.5,7.23,.67,14.42,.15,21.57-1,7.02-1.13,13.74-3.26,20.16-6.32,3.15-1.5,6.32-3.17,9.16-5.22,1.6-1.15,3.07-2.29,3.8-4.16,.54-1.4,.26-2.52,.3-3.95Z"/>
          <path class="cls-4" d="M326,470.48c-.15-.42-.46-.85-.93-.93-4.37-.77-7.56,2.66-11.56,3.91-4.69,1.47-9.64,1.7-14.52,1.72-5.74,.02-11.59-.03-17.28-.89-2.84-.43-5.61-1.15-8.4-1.86-2.27-.59-5.11-1.77-7.28-.44-.44,.27-.83,.81-.78,1.36,.53,5.65,10.6,7.34,14.99,8.16,6.46,1.2,13.02,1.57,19.58,1.55,5.54-.01,11.3-.37,16.59-2.14,4.27-1.43,11.6-4.75,9.59-10.42Z"/>
          <path class="cls-4" d="M304.11,501.91c-1.73-1.2-2.61-2.34-4.86-3.17-2.46-.91-5.23-.82-7.82-.94-4.82-.22-9.65-.57-14.41-1.38-4.68-.79-9.17-2.02-13.78-3.13-1.39-.33-9.89-3.59-10.04-.56-.19,3.74,6.31,6.95,9.13,8.22,4.43,2,9.28,3.26,14.06,4.05,4.84,.81,9.73,1.31,14.62,1.61,2.6,.16,5.31,.44,7.86-.27,2.49-.7,3.4-1.86,5.24-3.04,.53-.34,.5-1.04,0-1.39Z"/>
        </g>
      </g>
      <g>
        <path class="cls-3" d="M93.33,141.98c.35,1.72,.45,3.62,.29,5.69-.16,2.07-.59,4.13-1.29,6.16-.7,2.04-1.68,3.97-2.94,5.81-1.25,1.84-2.78,3.37-4.58,4.58-.98,.67-1.93,1.22-2.85,1.67-.92,.45-1.85,.84-2.79,1.17-.94,.33-1.92,.64-2.94,.91-1.02,.28-2.09,.55-3.23,.82,2.9,1.68,5.22,3.45,6.99,5.28,1.76,1.84,2.99,4.09,3.7,6.75,.35,1.17,.53,2.45,.53,3.82s-.16,2.75-.47,4.14c-.31,1.39-.8,2.74-1.47,4.05-.67,1.31-1.51,2.47-2.52,3.49-1.72,1.72-3.81,3.07-6.25,4.05-2.45,.98-4.98,1.71-7.6,2.2-2.62,.49-5.17,.8-7.63,.94-2.46,.14-4.56,.23-6.28,.26H30.22l-2.29-83.53,22.95-1.23c1.41,0,2.93,.01,4.55,.03,1.62,.02,3.38,.11,5.28,.26,1.9,.16,3.94,.41,6.13,.76,2.19,.35,4.56,.84,7.1,1.47,2.5,.63,4.87,1.58,7.1,2.88,2.23,1.29,4.21,2.84,5.93,4.64,1.72,1.8,3.13,3.8,4.23,5.99,1.1,2.19,1.8,4.5,2.11,6.93Zm-42.68,18.2c.43,0,1.29,.06,2.58,.18,1.29,.12,2.77,.15,4.43,.09s3.39-.25,5.2-.59c1.8-.33,3.43-.92,4.9-1.76,1.47-.84,2.63-1.98,3.49-3.43,.86-1.45,1.21-3.35,1.06-5.69-.2-2.15-.86-3.89-2-5.22-1.14-1.33-2.67-2.33-4.61-2.99-1.94-.67-4.21-1.06-6.81-1.17-2.6-.12-5.47-.04-8.6,.24l.35,20.37Zm1.11,31.23c.59,.04,1.44,.09,2.55,.15s2.33,.05,3.64-.03c1.31-.08,2.64-.23,3.99-.47,1.35-.23,2.54-.65,3.58-1.23,1.04-.59,1.86-1.36,2.47-2.32,.61-.96,.83-2.18,.67-3.67-.24-2.11-.97-3.69-2.2-4.72-1.23-1.04-2.7-1.74-4.4-2.11-1.7-.37-3.49-.51-5.37-.41-1.88,.1-3.58,.23-5.11,.38l.18,14.44Z"/>
        <path class="cls-3" d="M143.34,179.84h-26.12l-8.04,23.95-20.43-5.64,30.76-78.54,16.96,1.12,31.88,76.19-15.91,5.81-9.1-22.89Zm-4.58-10.21l-10.21-23.89-7.92,23.89h18.14Z"/>
        <path class="cls-3" d="M221.59,189l-.71,14.44-48.49-1.58v-11.92l32.23-50.6h-37.98v-19.84l59.41,.88v15.73l-29.58,52.54,25.12,.35Z"/>
        <path class="cls-3" d="M278.83,179.84h-26.12l-8.04,23.95-20.43-5.64,30.76-78.54,16.96,1.12,31.88,76.19-15.91,5.81-9.1-22.89Zm-4.58-10.21l-10.21-23.89-7.92,23.89h18.14Z"/>
        <path class="cls-3" d="M366.23,161.47c-1.25,1.29-2.69,2.42-4.32,3.38-1.62,.96-3.32,1.78-5.08,2.47-1.76,.68-3.55,1.23-5.37,1.64-1.82,.41-3.55,.72-5.2,.91l22.25,22.48-11.45,10.27-26.94-30.58,.65,30.58-21.78,1.17-2.29-83.53,22.95-1.23c2.82,0,6.23,.1,10.24,.29,4.01,.2,8.62,.86,13.82,2,2.31,.51,4.54,1.45,6.69,2.82,2.15,1.37,4.08,3.02,5.78,4.96,1.7,1.94,3.1,4.11,4.2,6.52,1.09,2.41,1.74,4.9,1.94,7.48,.12,1.72,.15,3.35,.09,4.87-.06,1.53-.29,3.03-.7,4.52-.41,1.49-1.05,2.96-1.91,4.43-.86,1.47-2.06,2.98-3.58,4.55Zm-13.74-12.74c-.28-2.27-.97-4.14-2.08-5.61-1.11-1.47-2.64-2.6-4.58-3.4-1.94-.8-4.26-1.29-6.96-1.47-2.7-.18-5.77-.13-9.22,.15v21.89c.55,0,1.53,.06,2.94,.18,1.41,.12,2.99,.17,4.76,.15,1.76-.02,3.58-.18,5.46-.5,1.88-.31,3.57-.9,5.08-1.76,1.51-.86,2.7-2.05,3.58-3.58,.88-1.53,1.22-3.54,1.03-6.05Z"/>
      </g>
      <g>
        <path class="cls-3" d="M22.82,321.73c-.5,0-1.03-.05-1.58-.14-2.79-.55-4.89-1.92-6.31-4.11-1.01-1.6-1.51-3.43-1.51-5.49,0-2.28,2.93-16.23,8.78-41.83,.96-5.12,2.35-11.36,4.18-18.72,1.14-4.75,2.56-9.42,4.25-13.99,1.14-3.47,2.63-6.74,4.46-9.81,2.61-3.75,5.74-5.62,9.39-5.62,3.24,0,6.26,1.53,9.05,4.59,2.42,3.15,4.32,6.63,5.69,10.42l.14,.34c4.71,11.7,8.82,23.57,12.34,35.59,3.15,10.33,6.45,20.59,9.87,30.79v.07c.96,2.38,1.44,4.68,1.44,6.93,0,4.16-1.92,7.13-5.76,8.91-1.37,.55-2.7,.82-3.98,.82-2.24,0-4.34-.79-6.31-2.36-1.97-1.58-3.45-3.41-4.46-5.49s-1.79-4.18-2.37-6.31c-.57-2.13-1.41-3.67-2.5-4.63-.73-.64-1.74-.96-3.02-.96-.69,0-1.44,.09-2.26,.27-1.37,.23-2.74,.34-4.11,.34-2.1,0-4.87-.3-8.3-.89-.73-.14-1.4-.21-1.99-.21-1.83,0-2.93,1.01-3.29,3.02-.73,3.25-1.53,6.47-2.4,9.67-1.83,5.85-4.98,8.78-9.46,8.78Zm23.93-39.36c1.69,0,3.43-.27,5.21-.82-1.14-6.45-3.32-12.96-6.51-19.54-.37,1.24-.69,2.4-.96,3.5-1.14,4.25-1.88,6.88-2.2,7.89-.87,2.56-1.42,5.35-1.64,8.36,2.56,.41,4.59,.62,6.1,.62Z"/>
        <path class="cls-3" d="M110.04,322.34c-3.52,0-7.18-.41-10.97-1.24-4.02-.87-6.85-2.29-8.47-4.25-1.62-1.97-2.43-4.89-2.43-8.78,0-5.62,.25-14.33,.75-26.13l.41-10.7v-34.49c0-2.42,.23-4.8,.69-7.13,1.23-4.71,4.14-7.06,8.71-7.06h.96c3.34,0,6.74-.43,10.22-1.3,2.06-.32,4.04-.48,5.97-.48,7.36,0,14.22,2.6,20.57,7.78,6.35,5.19,10.08,12.97,11.18,23.35,.14,1.19,.21,2.38,.21,3.57,0,4.07-.76,8.05-2.26,11.93-.41,.91-.62,1.76-.62,2.54,0,.23,.07,.63,.2,1.2,.14,.57,.69,1.34,1.65,2.3,5.03,5.48,7.54,11.04,7.54,16.66,0,.23-.06,1.86-.17,4.9-.11,3.04-3.05,7.07-8.81,12.1-6.58,5.76-13.67,10.03-21.26,12.82-4.43,1.6-9.12,2.4-14.06,2.4Zm1.3-54.17c1.42,0,2.6-.18,3.57-.55l1.85-.34c3.11-.41,5.42-1.58,6.93-3.5,1.51-1.92,2.49-4.3,2.95-7.13,.18-.96,.27-1.92,.27-2.88,0-1.97-.49-4.1-1.47-6.41-.98-2.31-2.66-4.22-5.04-5.72-1.74-1.01-3.52-1.51-5.35-1.51-4.11,0-6.17,1.53-6.17,4.59l.07,11.24v12.07c.87,.09,1.67,.14,2.4,.14Zm-.69,33.32c4.16-.78,8.07-2.09,11.73-3.94,3.66-1.85,7.11-4.44,10.35-7.78-2.06-1.33-3.91-1.99-5.55-1.99-.91,0-2.93,.6-6.03,1.78-3.11,1.19-6.35,1.97-9.74,2.33-1.1,.09-1.65,.85-1.65,2.26,0,.5-.02,1.04-.07,1.61-.05,.57-.07,1.18-.07,1.82,0,.32,.02,.79,.07,1.41,.04,.62,.37,1.45,.96,2.5Z"/>
        <path class="cls-3" d="M212.28,326.66c-2.33,0-4.57-.96-6.72-2.88-2.1-2.19-3.75-4.89-4.94-8.09l-9.6-20.23c-.5-1.19-1.13-2.11-1.89-2.78s-1.79-.99-3.12-.99h-.55c-2.47,0-3.7,1.05-3.7,3.15l.14,1.17c.5,3.34,.75,6.26,.75,8.78,0,2.7-.37,5.35-1.1,7.95-1.74,5.3-5.14,7.95-10.22,7.95-2.65,0-4.94-.94-6.86-2.81-1.78-1.74-2.86-4.05-3.22-6.93-.09-1.33-.14-2.65-.14-3.98l.07-3.09c0-1.14-.25-6.99-.75-17.55l-.21-5.42c-.32-5.03-.48-9.94-.48-14.74l.07-7.89c0-4.71-.21-9.35-.62-13.92l-.07-2.06c0-2.65,.62-6.19,1.85-10.63l.21-.75c1.28-4.29,4.07-6.44,8.37-6.44h.89c2.24,0,4.37-.3,6.38-.89,3.98-.96,7.68-1.44,11.11-1.44,8.64,0,16.71,2.58,24.2,7.75,4.94,3.56,8.23,8.16,9.87,13.78,.78,2.65,1.16,5.37,1.16,8.16,0,3.11-.48,6.31-1.44,9.6-2.15,7.68-5.99,14.26-11.52,19.75-1.46,1.37-2.19,2.67-2.19,3.91,0,1.05,.39,2.24,1.17,3.57,2.79,5.12,5.46,10.28,8.02,15.5l2.68,5.28c.73,1.37,1.35,2.79,1.85,4.25,.23,1.1,.34,2.12,.34,3.09,0,3.56-1.65,6.42-4.94,8.57-1.65,.87-3.27,1.3-4.87,1.3Zm-27.98-56.36l1.1-.07c4.3-.55,8.06-2.54,11.28-5.97,3.22-3.43,4.99-7.34,5.31-11.73v-.48c0-3.16-1.4-5.35-4.18-6.58-3.66-1.51-7.43-2.58-11.31-3.22l-1.3-.07c-3.61,0-5.46,2.15-5.55,6.44l-.07,5.56c.05,.82,.07,1.67,.07,2.54h.34c0,.92,.02,1.81,.07,2.68v2.06l-.07,4.59c0,1.74,.4,2.88,1.2,3.43,.8,.55,1.84,.82,3.12,.82Z"/>
        <path class="cls-3" d="M236.62,321.73c-.5,0-1.03-.05-1.58-.14-2.79-.55-4.89-1.92-6.31-4.11-1.01-1.6-1.51-3.43-1.51-5.49,0-2.28,2.93-16.23,8.78-41.83,.96-5.12,2.35-11.36,4.18-18.72,1.14-4.75,2.56-9.42,4.25-13.99,1.14-3.47,2.63-6.74,4.46-9.81,2.61-3.75,5.74-5.62,9.39-5.62,3.24,0,6.26,1.53,9.05,4.59,2.42,3.15,4.32,6.63,5.69,10.42l.14,.34c4.71,11.7,8.82,23.57,12.34,35.59,3.15,10.33,6.45,20.59,9.87,30.79v.07c.96,2.38,1.44,4.68,1.44,6.93,0,4.16-1.92,7.13-5.76,8.91-1.37,.55-2.7,.82-3.98,.82-2.24,0-4.34-.79-6.31-2.36-1.97-1.58-3.45-3.41-4.46-5.49s-1.79-4.18-2.37-6.31c-.57-2.13-1.41-3.67-2.5-4.63-.73-.64-1.74-.96-3.02-.96-.69,0-1.44,.09-2.26,.27-1.37,.23-2.74,.34-4.11,.34-2.1,0-4.87-.3-8.3-.89-.73-.14-1.4-.21-1.99-.21-1.83,0-2.93,1.01-3.29,3.02-.73,3.25-1.53,6.47-2.4,9.67-1.83,5.85-4.98,8.78-9.46,8.78Zm23.93-39.36c1.69,0,3.43-.27,5.21-.82-1.14-6.45-3.32-12.96-6.51-19.54-.37,1.24-.69,2.4-.96,3.5-1.14,4.25-1.88,6.88-2.2,7.89-.87,2.56-1.42,5.35-1.64,8.36,2.56,.41,4.59,.62,6.1,.62Z"/>
        <path class="cls-3" d="M315.2,321.73c-5.3,0-9.17-1.81-11.59-5.42-1.46-2.15-2.2-4.62-2.2-7.41,0-2.24,.48-4.68,1.44-7.33,1.83-4.62,4.23-8.89,7.2-12.82,8.78-12.07,17.48-24.18,26.12-36.34,.32-.46,.66-.89,1.03-1.3,.68-.82,1.31-1.72,1.89-2.71,.57-.98,.9-2.21,.99-3.67h-1.37c-4.43,0-8.75,.39-12.96,1.17l-6.65,.89c-1.1,.09-2.2,.23-3.29,.41-1.78,.32-3.54,.5-5.28,.55-5.9-.14-9.28-2.88-10.15-8.23l-.07-1.58c0-2.01,.57-3.89,1.71-5.62,2.15-3.29,10.81-5.81,25.99-7.54,6.67-.64,13.37-1.1,20.09-1.37,4.75-.28,7.61-.41,8.57-.41,1.69,0,3.36,.32,5.01,.96,3.61,1.46,6.1,3.77,7.47,6.93,.69,1.6,1.03,3.29,1.03,5.07s-.32,3.48-.96,5.35c-1.42,3.43-3.25,6.56-5.49,9.39l-.27,.48-12.69,17.69-18.45,25.85c-.64,.73-.96,1.46-.96,2.2,0,.55,.14,1.23,.41,2.06h25.23l1.37-.07c2.42,0,4.8,.46,7.13,1.37,4.53,2.24,6.79,5.58,6.79,10.01,0,.6-.05,1.21-.14,1.85-.87,4.89-3.93,7.79-9.19,8.71-1.01,.09-2.01,.14-3.02,.14h-14.88l-7.13-.07c-7.13,0-14.26,.25-21.39,.75l-1.37,.07Z"/>
        <path class="cls-3" d="M386.38,321.73c-.5,0-1.03-.05-1.58-.14-2.79-.55-4.89-1.92-6.31-4.11-1.01-1.6-1.51-3.43-1.51-5.49,0-2.28,2.93-16.23,8.78-41.83,.96-5.12,2.35-11.36,4.18-18.72,1.14-4.75,2.56-9.42,4.25-13.99,1.14-3.47,2.63-6.74,4.46-9.81,2.61-3.75,5.74-5.62,9.39-5.62,3.24,0,6.26,1.53,9.05,4.59,2.42,3.15,4.32,6.63,5.69,10.42l.14,.34c4.71,11.7,8.82,23.57,12.34,35.59,3.15,10.33,6.45,20.59,9.87,30.79v.07c.96,2.38,1.44,4.68,1.44,6.93,0,4.16-1.92,7.13-5.76,8.91-1.37,.55-2.7,.82-3.98,.82-2.24,0-4.34-.79-6.31-2.36-1.97-1.58-3.45-3.41-4.46-5.49-1.01-2.08-1.79-4.18-2.37-6.31-.57-2.13-1.41-3.67-2.5-4.63-.73-.64-1.74-.96-3.02-.96-.69,0-1.44,.09-2.26,.27-1.37,.23-2.74,.34-4.11,.34-2.1,0-4.87-.3-8.3-.89-.73-.14-1.4-.21-1.99-.21-1.83,0-2.93,1.01-3.29,3.02-.73,3.25-1.53,6.47-2.4,9.67-1.83,5.85-4.98,8.78-9.46,8.78Zm23.93-39.36c1.69,0,3.43-.27,5.21-.82-1.14-6.45-3.32-12.96-6.51-19.54-.37,1.24-.69,2.4-.96,3.5-1.14,4.25-1.88,6.88-2.2,7.89-.87,2.56-1.42,5.35-1.64,8.36,2.56,.41,4.59,.62,6.1,.62Z"/>
        <path class="cls-3" d="M503.08,326.66c-2.33,0-4.57-.96-6.72-2.88-2.1-2.19-3.75-4.89-4.94-8.09l-9.6-20.23c-.5-1.19-1.13-2.11-1.89-2.78s-1.79-.99-3.12-.99h-.55c-2.47,0-3.7,1.05-3.7,3.15l.14,1.17c.5,3.34,.75,6.26,.75,8.78,0,2.7-.37,5.35-1.1,7.95-1.74,5.3-5.14,7.95-10.22,7.95-2.65,0-4.94-.94-6.86-2.81-1.78-1.74-2.86-4.05-3.22-6.93-.09-1.33-.14-2.65-.14-3.98l.07-3.09c0-1.14-.25-6.99-.75-17.55l-.21-5.42c-.32-5.03-.48-9.94-.48-14.74l.07-7.89c0-4.71-.21-9.35-.62-13.92l-.07-2.06c0-2.65,.62-6.19,1.85-10.63l.21-.75c1.28-4.29,4.07-6.44,8.37-6.44h.89c2.24,0,4.37-.3,6.38-.89,3.98-.96,7.68-1.44,11.11-1.44,8.64,0,16.71,2.58,24.2,7.75,4.94,3.56,8.23,8.16,9.87,13.78,.78,2.65,1.16,5.37,1.16,8.16,0,3.11-.48,6.31-1.44,9.6-2.15,7.68-5.99,14.26-11.52,19.75-1.46,1.37-2.19,2.67-2.19,3.91,0,1.05,.39,2.24,1.17,3.57,2.79,5.12,5.46,10.28,8.02,15.5l2.68,5.28c.73,1.37,1.35,2.79,1.85,4.25,.23,1.1,.34,2.12,.34,3.09,0,3.56-1.65,6.42-4.94,8.57-1.65,.87-3.27,1.3-4.87,1.3Zm-27.98-56.36l1.1-.07c4.3-.55,8.06-2.54,11.28-5.97,3.22-3.43,4.99-7.34,5.31-11.73v-.48c0-3.16-1.4-5.35-4.18-6.58-3.66-1.51-7.43-2.58-11.31-3.22l-1.3-.07c-3.61,0-5.46,2.15-5.55,6.44l-.07,5.56c.05,.82,.07,1.67,.07,2.54h.34c0,.92,.02,1.81,.07,2.68v2.06l-.07,4.59c0,1.74,.4,2.88,1.2,3.43,.8,.55,1.84,.82,3.12,.82Z"/>
      </g>
      <ellipse class="cls-1" cx="459.6" cy="158.18" rx="83.21" ry="52.14"/>
      <g>
        <path class="cls-2" d="M422.17,140.24c3.3,5.44,3.38,11.18,.24,17.21-4.43,6.28-9.56,8.86-15.37,7.75,.36,3.27,1.19,9.28,2.47,18.03-5.49,1.07-9.24,1.72-11.24,1.93-2.16-15.22-3.7-27.36-4.61-36.42-.65-5.06-.97-7.96-.97-8.73,5.26-3.25,11.33-4.81,18.22-4.68,4.77,.11,8.52,1.75,11.25,4.91Zm-16.85,15.79c5.79,.49,8.53-1.05,8.22-4.61-.21-1.49-.99-2.41-2.34-2.77-2.48-.42-4.69-.07-6.61,1.07,.33,2.71,.57,4.81,.73,6.31Z"/>
        <path class="cls-2" d="M445.37,135.18c.36,.49,1.11,2.54,2.25,6.14,4.01,14.61,7.86,27.49,11.55,38.65,0,.36-1.5,1.18-4.49,2.46-2.99,1.28-4.84,1.91-5.55,1.9-.41-.75-1.5-3.9-3.28-9.44-1.92-.15-5.12-.71-9.59-1.67-.44,2.26-.99,5.52-1.65,9.79-1.54,.04-5.23-.85-11.09-2.66-.01-.65,.94-5.32,2.86-14.01,2.61-11.7,4.67-21.65,6.18-29.85,.39-.36,2.33-.65,5.82-.87,3.5-.22,5.82-.37,6.97-.46Zm-5.73,15.94c-.71,5.09-1.37,9.36-1.97,12.81,2.33,.4,4.08,.56,5.24,.47-.9-4.28-1.52-7.23-1.86-8.84-.34-1.61-.81-3.09-1.41-4.44Z"/>
        <path class="cls-2" d="M488.23,138.93c1.85,1,3.07,2.42,3.67,4.25,.54,1.8,.74,3.54,.62,5.22,0,2.46-.65,4.69-1.95,6.7-1.32,2.37-3.84,5.51-7.55,9.4,3.26,3,5.69,5.52,7.3,7.58s2.54,3.38,2.79,3.98c-3.4,3.71-6.13,5.9-8.2,6.57-2.41-3.48-4.51-6.29-6.31-8.43-1.9-2.3-3.93-3.95-6.11-4.94-.05,1.51-.08,6.4-.08,14.66-6.07-.17-9.72-.86-10.96-2.04,0-4.16,.23-17.43,.69-39.83,5.67-2.31,8.99-3.55,9.96-3.71,2.91-.81,4.87-1.22,5.88-1.22,4.16-.29,7.57,.31,10.22,1.8Zm-13.31,8.75c-.76,.14-1.69,.61-2.79,1.42,.14,.96,.25,5.03,.36,12.19,2.48-2.32,4.49-4.31,6.03-5.96,1.83-2.37,2.05-4.49,.64-6.37-.94-1.22-2.35-1.65-4.23-1.29Z"/>
        <path class="cls-2" d="M517.04,135.18c.36,.49,1.11,2.54,2.25,6.14,4.01,14.61,7.86,27.49,11.55,38.65,0,.36-1.5,1.18-4.49,2.46-2.99,1.28-4.84,1.91-5.55,1.9-.41-.75-1.5-3.9-3.28-9.44-1.92-.15-5.12-.71-9.59-1.67-.44,2.26-.99,5.52-1.65,9.79-1.54,.04-5.23-.85-11.09-2.66-.01-.65,.94-5.32,2.86-14.01,2.61-11.7,4.67-21.65,6.18-29.85,.39-.36,2.33-.65,5.82-.87,3.5-.22,5.82-.37,6.97-.46Zm-5.73,15.94c-.71,5.09-1.37,9.36-1.97,12.81,2.33,.4,4.08,.56,5.24,.47-.9-4.28-1.52-7.23-1.86-8.84-.34-1.61-.81-3.09-1.41-4.44Z"/>
      </g>
    </g>
  </g>
</svg>