<?xml version="1.0" encoding="UTF-8"?>
<svg id="Layer_2" data-name="Layer 2" xmlns="http://www.w3.org/2000/svg" viewBox="0 0 531.11 513.04">
  <defs>
    <style>
      .cls-1 {
        fill: #fff;
      }

      .cls-2 {
        fill: #5349d7;
      }

      .cls-3 {
        fill: #ffe000;
      }

      .cls-4 {
        fill: #7771ff;
      }
    </style>
  </defs>
  <g id="Capa_1" data-name="Capa 1">
    <g>
      <g>
        <g>
          <path class="cls-4" d="M495.32,48.05c-12.1-22.49-34.02-42.27-59.68-46.94-25.76-4.69-51.66,6.2-74.82,18.43-34.48,18.21-68.27,41.21-87.66,75.04-2.52,4.39-4.72,10.11-1.79,14.23,2.58,3.63,8.11,3.97,12.12,2.02,4.01-1.95,6.88-5.59,9.73-9.01,29.45-35.35,92.14-79.97,141.1-64.81,31.87,9.87,38.94,48.85,41.62,77.77,1.43,15.45,.56,30.91-1.75,47.06-1.07,7.5-2.4,14.98-4.12,22.36-.29,1.26-.6,2.52-.92,3.78-.05,.18-.1,.35-.17,.6-.49,1.77-.99,3.53-1.53,5.28-1.06,3.5-2.22,6.98-3.47,10.42-1.25,3.44-2.6,6.83-4.05,10.19-.72,1.67-1.5,3.33-2.24,4.99-.15,.35-.27,.61-.36,.81-.34,.61-.69,1.21-1.05,1.81-3.92,6.65-7.83,13.29-12.36,19.55-2.13,2.95-4.37,5.83-6.71,8.63-1.17,1.4-2.37,2.79-3.6,4.14-.45,.5-.9,.99-1.36,1.48-.13,.14-.26,.29-.39,.42-.06,.07-.12,.13-.18,.2,.05-.05,.07-.08,.11-.12-.06,.07-.12,.13-.17,.17-5.75,5.66-11.9,10.91-18.44,15.65-1.73,1.25-3.5,2.47-5.29,3.64-.79,.52-1.59,1.03-2.4,1.54-.21,.13-.94,.57-1.41,.85-.13,.08-.25,.14-.3,.17-.83,.46-1.66,.92-2.49,1.37-1.67,.9-3.36,1.76-5.07,2.58-3.83,1.85-7.75,3.52-11.74,4.99-1.77,.65-3.55,1.26-5.35,1.84-.83,.26-1.66,.51-2.49,.76-7.3,1.8-14.72,2.97-22.06,4.57-4.67,1.02-9.52,2.41-13.8,4.61-3.14,1.62-8.14,5.12-9.01,8.71-1.36,5.65,6.52,11.83,10.99,14.03,4.79,2.36,10.1,3.37,15.39,3.61,1,.05,2,.04,2.99,.03-.49,.19-.96,.43-1.45,.62-2.94,1.13-5.92,2.16-8.93,3.08-.6,.18-1.19,.36-1.79,.53-.24,.06-.54,.13-.96,.23-1.4,.34-2.81,.67-4.22,.96-6.09,1.27-12.3,1.96-18.48,2.58-8.18,.83-13.71,2.59-19.47,8.64-1.46,1.53-1.86,4.93-.8,6.75,2.57,4.4,5.45,7.5,10.32,9.39,3.93,1.53,8.03,1.96,12.2,1.98,1.32,0,2.63-.07,3.93-.12-3.15,2.47-5.57,5.62-6.2,9.84-.11,.73-.01,1.54,0,2.3-.16-.05-.51,.71-.23,1.57,.02,.06,1.65,3.49,.68,1.78,.68,1.2,.15,.95,1.7,3.02,3.59,4.79,8.72,6.36,14.32,6.18,.13,2.76,1.02,5.52,2.48,7.67,5.04,7.36,14.54,8.12,22.47,5.91,.05,1.59,.38,3.12,1.13,4.43,.01-.08,.02-.16,.03-.24,.25,.61,.54,1.2,.88,1.76,2.4,4.03,8.02,7.6,13,6.38,46.71-11.45,78.66-79.13,99.2-115.28,4.1-7.21,5.24-9.27,8.93-16.28,2.34-4.45,4.55-8.97,6.63-13.55,4.33-9.56,8.08-19.39,11.23-29.4,6.38-20.3,10.57-41.22,11.91-62.48,2.66-42.51-4.02-87.85-24.38-125.7Z"/>
          <path class="cls-2" d="M373.71,342.31c-3.34-1.26-6.14,.27-9.14,1.74-3.26,1.6-6.59,3.04-10,4.29-6.23,2.29-12.72,4.19-19.3,5.11-5.62,.78-11.47,.95-16.97-.62-2.76-.79-5.21-1.98-7.83-3.11-1.64-.71-4.39-1.75-5.24,.64-1.86,5.19,8.27,9.41,11.86,10.46,6.17,1.8,12.84,1.96,19.18,1.14,7.04-.91,13.95-2.82,20.61-5.25,3.73-1.36,7.41-2.91,11-4.62,3.26-1.55,6.65-3.21,7.36-7.07,.23-1.25-.34-2.25-1.53-2.7Z"/>
          <path class="cls-2" d="M383.8,369.28c-1.38-1.73-3.41-1.94-5.36-1.07-3.66,1.64-6.93,4.22-10.53,6.04-3.42,1.74-6.96,3.21-10.59,4.45-3.53,1.21-7.23,2.35-10.95,2.77-1.77,.2-3.62,.25-5.39,.02-1.94-.26-3.75-.87-5.67-.19-1.05,.37-2.04,1.57-1.57,2.76,1.67,4.23,7.07,4.7,11.07,4.7,4.53,0,9.08-.97,13.43-2.14,4.39-1.18,8.64-2.78,12.79-4.63,4.25-1.9,9.04-4.01,12.44-7.26,1.48-1.42,1.58-3.88,.32-5.45Z"/>
          <path class="cls-2" d="M400.86,379.56c-3.75,.36-6.17,3.39-9.05,5.5-2.71,1.99-5.6,3.73-8.62,5.22-2.78,1.36-5.67,2.44-8.65,3.28-1.68,.48-3.32,.89-4.95,1.52-1.73,.67-3.54,1.2-4.46,2.98-.52,1.01-.35,2.04,.37,2.88,2.44,2.83,7.9,1.63,11,.83,3.71-.95,7.31-2.3,10.79-3.9,3.23-1.48,6.32-3.27,9.22-5.32,3.36-2.39,7.41-5,7.92-9.41,.21-1.8-1.81-3.74-3.58-3.57Z"/>
        </g>
        <g>
          <path class="cls-4" d="M336.78,403.54c-9.08-5.49-16.45-5.8-26.76-4.08-7.79,1.3-15.63,2.53-23.52,3.01-1.83,.11-3.66,.17-5.49,.23-.55,.02-.93,.03-1.25,.04-.79,0-1.58-.03-2.37-.05-4-.12-7.99-.38-11.97-.79-.66-.07-1.32-.2-1.98-.27,1.22-.33,2.44-.65,3.66-1.04,6.41-2.06,12.58-5.08,17.66-9.57,4.74-4.2,12.34-14.41,8.79-20.87-2.26-4.11-9.56-6.73-13.95-7.66-5.98-1.27-12.39-1.35-18.46-1.04-9.53,.49-19.01,1.54-28.57,1.77-1.1-.04-2.2-.05-3.31-.1-2.39-.1-4.79-.25-7.17-.46-5.39-.47-10.75-1.2-16.07-2.19-2.37-.44-4.73-.93-7.08-1.47-1.18-.27-2.34-.57-3.52-.85-.06-.02-.23-.06-.42-.11-.67-.19-1.71-.48-2.01-.57-1.16-.35-2.31-.71-3.46-1.08-2.59-.84-5.15-1.74-7.7-2.7-9.6-3.62-18.9-8-27.84-13.02-.07-.04-.16-.1-.26-.15,.07,.04,.1,.07,.18,.11-.09-.06-.19-.12-.29-.18-.19-.12-.41-.26-.62-.39-.72-.45-1.44-.9-2.16-1.36-1.96-1.25-3.89-2.55-5.79-3.88-3.8-2.64-7.51-5.42-11.12-8.33-7.64-6.17-14.65-13-21.68-19.84-.63-.62-1.27-1.24-1.89-1.87-.18-.22-.41-.5-.71-.87-1.46-1.8-2.97-3.56-4.42-5.37-2.9-3.63-5.69-7.35-8.37-11.14-2.69-3.8-5.27-7.67-7.74-11.61-1.24-1.97-2.44-3.97-3.64-5.97-.17-.28-.29-.48-.41-.68-.81-1.43-1.61-2.87-2.39-4.32-4.58-8.47-8.71-17.2-12.53-26.04-8.23-19.02-14.47-37.68-17.88-57.1-6.75-38.47-3.42-80.48,19.2-112.13,12.68-17.73,30.76-34.54,52.27-40.38,22.97-6.24,46.14,5.37,64.76,18.23,11.94,8.25,22.66,18.11,32.09,29.13,10.24,11.97,18.64,25.11,30.08,36.01,4.76,4.53,14.21-.68,12.62-7.2-3.72-15.27-12-27.98-21.85-40.1-9.62-11.84-20.49-22.9-32.58-32.24-12.41-9.6-26.27-17.41-40.99-22.76-7.65-3.96-15.36-6.25-24.34-6.4-5.52-.89-11.11-1.42-16.75-1.55-28.85-.67-57.93,7.4-79.46,27.34C25.3,50.04,12.89,77.46,6.21,106.35c-12.3,53.2-5.34,111.03,12.14,162.24,8.74,25.61,20.87,49.86,35.49,72.61,7.21,11.22,15.09,22.02,23.6,32.29,4.08,4.92,8.3,9.72,12.66,14.4,6.86,7.35,8.96,9.5,16.39,16.97,37.27,37.45,99.06,109.74,160.16,108.16,6.51-.17,12.21-6.43,13.8-12.16,.22-.81,.38-1.63,.48-2.46,.04,.1,.08,.19,.12,.29,.48-1.85,.37-3.85-.1-5.81,10.47,.05,21.86-4.06,25.57-14.77,1.08-3.12,1.24-6.8,.48-10.23,6.93-1.65,12.69-5.3,15.49-12.36,1.21-3.06,.65-2.57,1.08-4.28-.62,2.43,.23-2.32,.24-2.4,.05-1.15-.63-1.96-.81-1.85-.24-.94-.38-1.96-.76-2.83-2.18-4.96-6.21-8.01-10.89-9.98,1.62-.37,3.25-.72,4.87-1.16,5.1-1.41,9.98-3.31,14.29-6.5,5.33-3.95,7.83-8.7,9.51-14.96,.7-2.59-.94-6.63-3.23-8.02Z"/>
          <path class="cls-2" d="M335.77,420.01c.01-.46-.36-1.03-.84-1.1-2.96-.49-4.6-.92-7.37,.77-2.63,1.61-5.15,3.35-7.88,4.8-5.57,2.97-11.57,5.2-17.69,6.69-6,1.46-12.22,1.93-18.38,1.67-3.11-.13-6.21-.45-9.27-1.02-3.05-.57-6.23-1.53-9.35-1.33-2,.13-3.61,2.81-1.8,4.34,4.9,4.13,12.64,4.81,18.8,5.38,7.07,.65,14.11,.15,21.1-.98,6.87-1.11,13.44-3.19,19.72-6.18,3.08-1.46,6.19-3.1,8.96-5.1,1.56-1.13,3.01-2.24,3.71-4.08,.53-1.37,.26-2.46,.29-3.86Z"/>
          <path class="cls-2" d="M318.97,460.34c-.14-.41-.45-.83-.91-.91-4.28-.75-7.4,2.6-11.31,3.83-4.59,1.44-9.43,1.67-14.21,1.68-5.62,.02-11.34-.03-16.9-.87-2.78-.42-5.49-1.12-8.21-1.82-2.22-.57-5-1.73-7.12-.43-.43,.26-.81,.8-.76,1.33,.52,5.53,10.38,7.18,14.67,7.98,6.32,1.18,12.74,1.54,19.16,1.52,5.42-.01,11.06-.37,16.23-2.1,4.18-1.4,11.35-4.65,9.38-10.2Z"/>
          <path class="cls-2" d="M297.56,491.1c-1.69-1.17-2.55-2.29-4.75-3.1-2.41-.89-5.12-.8-7.65-.92-4.72-.21-9.44-.56-14.1-1.35-4.58-.78-8.98-1.98-13.48-3.06-1.36-.33-9.68-3.51-9.83-.55-.18,3.66,6.17,6.8,8.93,8.04,4.34,1.95,9.08,3.19,13.76,3.97,4.73,.79,9.52,1.28,14.3,1.58,2.55,.16,5.2,.43,7.69-.27,2.43-.68,3.33-1.82,5.13-2.98,.52-.33,.49-1.02,0-1.36Z"/>
        </g>
      </g>
      <g>
        <path class="cls-1" d="M91.32,138.92c.34,1.69,.44,3.54,.29,5.57-.15,2.03-.57,4.04-1.26,6.03-.69,1.99-1.65,3.89-2.87,5.69-1.23,1.8-2.72,3.29-4.48,4.48-.96,.65-1.89,1.2-2.79,1.64-.9,.44-1.81,.82-2.73,1.15-.92,.33-1.88,.62-2.87,.89-1,.27-2.05,.54-3.16,.8,2.83,1.65,5.11,3.37,6.84,5.17,1.72,1.8,2.93,4,3.62,6.61,.34,1.15,.52,2.39,.52,3.73s-.15,2.69-.46,4.05c-.31,1.36-.78,2.68-1.44,3.96-.65,1.28-1.47,2.42-2.47,3.42-1.69,1.68-3.72,3.01-6.12,3.96-2.39,.96-4.87,1.67-7.44,2.15-2.57,.48-5.05,.78-7.47,.92-2.41,.14-4.46,.22-6.15,.26H29.57l-2.24-81.73,22.46-1.21c1.38,0,2.86,.01,4.45,.03,1.59,.02,3.31,.11,5.17,.26,1.86,.15,3.86,.4,6,.75,2.14,.34,4.46,.82,6.95,1.44,2.45,.61,4.77,1.55,6.95,2.81s4.12,2.78,5.8,4.54c1.68,1.76,3.06,3.71,4.14,5.86,1.07,2.15,1.76,4.41,2.07,6.78Zm-41.76,17.81c.42,0,1.26,.06,2.53,.17,1.26,.12,2.71,.14,4.34,.09s3.32-.25,5.08-.57c1.76-.32,3.36-.9,4.8-1.72,1.44-.82,2.58-1.94,3.42-3.36,.84-1.42,1.19-3.28,1.03-5.57-.19-2.11-.84-3.81-1.95-5.11-1.11-1.3-2.61-2.28-4.51-2.93-1.9-.65-4.12-1.03-6.66-1.15-2.55-.11-5.35-.04-8.41,.23l.34,19.93Zm1.09,30.56c.57,.04,1.41,.09,2.5,.14s2.28,.05,3.56-.03c1.28-.08,2.58-.23,3.91-.46,1.32-.23,2.49-.63,3.5-1.2,1.01-.57,1.82-1.33,2.41-2.27,.59-.94,.81-2.13,.66-3.59-.23-2.07-.95-3.61-2.15-4.62-1.21-1.02-2.64-1.7-4.31-2.07-1.67-.36-3.42-.5-5.26-.4-1.84,.1-3.5,.22-5,.37l.17,14.13Z"/>
        <path class="cls-1" d="M140.25,175.97h-25.56l-7.87,23.43-19.99-5.51,30.1-76.85,16.6,1.09,31.19,74.55-15.56,5.69-8.9-22.4Zm-4.48-9.99l-9.99-23.38-7.75,23.38h17.75Z"/>
        <path class="cls-1" d="M216.82,184.93l-.69,14.13-47.44-1.55v-11.66l31.53-49.51h-37.16v-19.41l58.13,.86v15.39l-28.95,51.41,24.58,.34Z"/>
        <path class="cls-1" d="M272.82,175.97h-25.56l-7.87,23.43-19.99-5.51,30.1-76.85,16.6,1.09,31.19,74.55-15.56,5.69-8.9-22.4Zm-4.48-9.99l-9.99-23.38-7.75,23.38h17.75Z"/>
        <path class="cls-1" d="M358.34,157.99c-1.23,1.26-2.63,2.36-4.22,3.3-1.59,.94-3.25,1.74-4.97,2.41-1.72,.67-3.48,1.2-5.26,1.61-1.78,.4-3.48,.7-5.08,.89l21.77,22-11.2,10.05-26.36-29.92,.63,29.92-21.31,1.15-2.24-81.73,22.46-1.21c2.76,0,6.1,.1,10.02,.29,3.92,.19,8.43,.84,13.53,1.95,2.26,.5,4.44,1.42,6.55,2.76,2.11,1.34,3.99,2.96,5.66,4.85,1.67,1.9,3.03,4.02,4.11,6.38,1.07,2.36,1.7,4.8,1.89,7.32,.12,1.69,.14,3.27,.09,4.77-.06,1.49-.29,2.97-.69,4.42-.4,1.46-1.03,2.9-1.87,4.34-.84,1.44-2.01,2.92-3.5,4.45Zm-13.44-12.46c-.27-2.22-.95-4.05-2.04-5.49-1.09-1.44-2.58-2.54-4.48-3.33-1.9-.78-4.16-1.26-6.81-1.44-2.64-.17-5.65-.13-9.02,.14v21.42c.54,0,1.49,.06,2.87,.17,1.38,.11,2.93,.16,4.65,.14,1.72-.02,3.5-.18,5.34-.49,1.84-.31,3.49-.88,4.97-1.72,1.47-.84,2.64-2.01,3.5-3.5,.86-1.49,1.2-3.47,1.01-5.92Z"/>
      </g>
      <g>
        <path class="cls-1" d="M22.33,314.8c-.49,0-1.01-.04-1.54-.13-2.73-.54-4.79-1.88-6.17-4.03-.98-1.56-1.48-3.35-1.48-5.37,0-2.23,2.86-15.88,8.59-40.92,.94-5.01,2.3-11.11,4.09-18.32,1.12-4.65,2.5-9.21,4.16-13.69,1.12-3.4,2.57-6.6,4.36-9.6,2.55-3.67,5.61-5.5,9.19-5.5,3.18,0,6.13,1.5,8.86,4.49,2.37,3.08,4.23,6.49,5.57,10.2l.13,.33c4.61,11.45,8.63,23.06,12.08,34.82,3.09,10.11,6.31,20.15,9.66,30.12v.07c.94,2.33,1.41,4.58,1.41,6.78,0,4.07-1.88,6.98-5.64,8.72-1.34,.54-2.64,.8-3.89,.8-2.19,0-4.25-.77-6.17-2.31-1.92-1.54-3.38-3.33-4.36-5.37s-1.76-4.09-2.31-6.17c-.56-2.08-1.37-3.59-2.45-4.53-.72-.63-1.7-.94-2.95-.94-.67,0-1.41,.09-2.21,.27-1.34,.22-2.68,.34-4.03,.34-2.06,0-4.76-.29-8.12-.87-.72-.13-1.37-.2-1.95-.2-1.79,0-2.86,.99-3.22,2.95-.72,3.18-1.5,6.33-2.35,9.46-1.79,5.73-4.88,8.59-9.26,8.59Zm23.41-38.51c1.65,0,3.36-.27,5.1-.8-1.12-6.31-3.24-12.68-6.37-19.12-.36,1.21-.67,2.35-.94,3.42-1.12,4.16-1.84,6.73-2.15,7.72-.85,2.51-1.39,5.23-1.61,8.18,2.5,.4,4.49,.6,5.97,.6Z"/>
        <path class="cls-1" d="M107.67,315.4c-3.44,0-7.02-.4-10.73-1.21-3.94-.85-6.7-2.24-8.29-4.16-1.59-1.92-2.38-4.79-2.38-8.59,0-5.5,.25-14.02,.74-25.56l.4-10.47v-33.75c0-2.37,.22-4.7,.67-6.98,1.21-4.61,4.05-6.91,8.52-6.91h.94c3.26,0,6.6-.42,10-1.27,2.01-.31,3.96-.47,5.84-.47,7.2,0,13.91,2.54,20.13,7.62,6.22,5.08,9.86,12.69,10.94,22.84,.13,1.16,.2,2.33,.2,3.49,0,3.98-.74,7.87-2.21,11.67-.4,.89-.6,1.72-.6,2.48,0,.22,.07,.61,.2,1.17,.13,.56,.67,1.31,1.61,2.25,4.92,5.37,7.38,10.8,7.38,16.3,0,.22-.06,1.82-.17,4.8-.11,2.97-2.99,6.92-8.62,11.84-6.44,5.64-13.37,9.82-20.8,12.55-4.34,1.56-8.92,2.35-13.75,2.35Zm1.28-53c1.39,0,2.55-.18,3.49-.54l1.81-.33c3.04-.4,5.3-1.54,6.78-3.42,1.48-1.88,2.44-4.2,2.89-6.98,.18-.94,.27-1.88,.27-2.82,0-1.92-.48-4.01-1.44-6.27-.96-2.26-2.61-4.13-4.93-5.6-1.7-.98-3.45-1.48-5.23-1.48-4.03,0-6.04,1.5-6.04,4.49l.07,11v11.81c.85,.09,1.63,.13,2.35,.13Zm-.67,32.61c4.07-.76,7.89-2.05,11.47-3.86,3.58-1.81,6.95-4.35,10.13-7.61-2.01-1.3-3.82-1.95-5.43-1.95-.89,0-2.86,.58-5.9,1.74-3.04,1.16-6.22,1.92-9.53,2.28-1.07,.09-1.61,.83-1.61,2.21,0,.49-.02,1.02-.07,1.58-.05,.56-.07,1.15-.07,1.78,0,.31,.02,.77,.07,1.38,.04,.6,.36,1.42,.94,2.45Z"/>
        <path class="cls-1" d="M207.71,319.63c-2.28,0-4.47-.94-6.57-2.82-2.06-2.15-3.67-4.79-4.83-7.92l-9.39-19.79c-.49-1.16-1.11-2.07-1.85-2.72s-1.76-.97-3.05-.97h-.54c-2.41,0-3.62,1.03-3.62,3.08l.13,1.14c.49,3.27,.74,6.13,.74,8.59,0,2.64-.36,5.23-1.07,7.78-1.7,5.19-5.03,7.78-10,7.78-2.6,0-4.83-.92-6.71-2.75-1.74-1.7-2.8-3.96-3.15-6.78-.09-1.3-.13-2.59-.13-3.89l.07-3.02c0-1.12-.25-6.84-.74-17.17l-.2-5.3c-.31-4.92-.47-9.73-.47-14.43l.07-7.72c0-4.61-.2-9.15-.6-13.62l-.07-2.01c0-2.59,.6-6.06,1.81-10.4l.2-.74c1.25-4.2,3.98-6.31,8.19-6.31h.87c2.19,0,4.27-.29,6.24-.87,3.89-.94,7.51-1.41,10.87-1.41,8.45,0,16.35,2.53,23.68,7.58,4.83,3.49,8.05,7.98,9.66,13.48,.76,2.6,1.14,5.26,1.14,7.98,0,3.04-.47,6.17-1.41,9.39-2.1,7.51-5.86,13.96-11.27,19.32-1.43,1.34-2.15,2.62-2.15,3.82,0,1.03,.38,2.19,1.14,3.49,2.73,5.01,5.34,10.06,7.85,15.16l2.62,5.17c.71,1.34,1.32,2.73,1.81,4.16,.22,1.07,.34,2.08,.34,3.02,0,3.49-1.61,6.28-4.83,8.39-1.61,.85-3.2,1.27-4.76,1.27Zm-27.37-55.15l1.07-.07c4.2-.54,7.88-2.48,11.04-5.84,3.15-3.35,4.89-7.18,5.2-11.47v-.47c0-3.09-1.37-5.23-4.09-6.44-3.58-1.48-7.27-2.53-11.07-3.15l-1.28-.07c-3.53,0-5.35,2.1-5.43,6.31l-.07,5.44c.04,.8,.07,1.63,.07,2.48h.33c0,.9,.02,1.77,.07,2.62v2.01l-.07,4.49c0,1.7,.39,2.82,1.17,3.35,.78,.54,1.8,.81,3.05,.81Z"/>
        <path class="cls-1" d="M231.52,314.8c-.49,0-1.01-.04-1.54-.13-2.73-.54-4.79-1.88-6.17-4.03-.98-1.56-1.48-3.35-1.48-5.37,0-2.23,2.86-15.88,8.59-40.92,.94-5.01,2.3-11.11,4.09-18.32,1.12-4.65,2.5-9.21,4.16-13.69,1.12-3.4,2.57-6.6,4.36-9.6,2.55-3.67,5.61-5.5,9.19-5.5,3.18,0,6.13,1.5,8.86,4.49,2.37,3.08,4.23,6.49,5.57,10.2l.13,.33c4.61,11.45,8.63,23.06,12.08,34.82,3.09,10.11,6.31,20.15,9.66,30.12v.07c.94,2.33,1.41,4.58,1.41,6.78,0,4.07-1.88,6.98-5.64,8.72-1.34,.54-2.64,.8-3.89,.8-2.19,0-4.25-.77-6.17-2.31-1.92-1.54-3.38-3.33-4.36-5.37-.98-2.04-1.76-4.09-2.31-6.17-.56-2.08-1.37-3.59-2.45-4.53-.72-.63-1.7-.94-2.95-.94-.67,0-1.41,.09-2.21,.27-1.34,.22-2.68,.34-4.03,.34-2.06,0-4.76-.29-8.12-.87-.72-.13-1.37-.2-1.95-.2-1.79,0-2.86,.99-3.22,2.95-.72,3.18-1.5,6.33-2.35,9.46-1.79,5.73-4.88,8.59-9.26,8.59Zm23.41-38.51c1.65,0,3.36-.27,5.1-.8-1.12-6.31-3.24-12.68-6.37-19.12-.36,1.21-.67,2.35-.94,3.42-1.12,4.16-1.84,6.73-2.15,7.72-.85,2.51-1.39,5.23-1.61,8.18,2.5,.4,4.49,.6,5.97,.6Z"/>
        <path class="cls-1" d="M308.41,314.8c-5.19,0-8.97-1.77-11.34-5.3-1.43-2.1-2.15-4.52-2.15-7.25,0-2.19,.47-4.58,1.41-7.18,1.79-4.52,4.14-8.7,7.05-12.55,8.59-11.81,17.11-23.66,25.56-35.56,.31-.45,.65-.87,1.01-1.27,.67-.81,1.28-1.69,1.84-2.65,.56-.96,.88-2.16,.97-3.59h-1.34c-4.34,0-8.57,.38-12.68,1.14l-6.51,.87c-1.07,.09-2.15,.22-3.22,.4-1.74,.31-3.47,.49-5.17,.54-5.77-.13-9.08-2.82-9.93-8.05l-.07-1.54c0-1.97,.56-3.8,1.68-5.5,2.1-3.22,10.58-5.68,25.43-7.38,6.53-.63,13.08-1.07,19.66-1.34,4.65-.27,7.45-.4,8.39-.4,1.65,0,3.29,.31,4.9,.94,3.53,1.43,5.97,3.69,7.31,6.78,.67,1.56,1.01,3.22,1.01,4.96s-.31,3.4-.94,5.23c-1.39,3.35-3.18,6.42-5.37,9.19l-.27,.47-12.41,17.31-18.05,25.29c-.63,.72-.94,1.43-.94,2.15,0,.54,.13,1.21,.4,2.01h24.69l1.34-.07c2.37,0,4.7,.45,6.98,1.34,4.43,2.19,6.64,5.46,6.64,9.8,0,.58-.05,1.19-.13,1.81-.85,4.79-3.85,7.63-8.99,8.52-.98,.09-1.97,.14-2.95,.14h-14.56l-6.98-.07c-6.98,0-13.96,.25-20.93,.74l-1.34,.07Z"/>
        <path class="cls-1" d="M378.05,314.8c-.49,0-1.01-.04-1.54-.13-2.73-.54-4.79-1.88-6.17-4.03-.98-1.56-1.48-3.35-1.48-5.37,0-2.23,2.86-15.88,8.59-40.92,.94-5.01,2.3-11.11,4.09-18.32,1.12-4.65,2.5-9.21,4.16-13.69,1.12-3.4,2.57-6.6,4.36-9.6,2.55-3.67,5.61-5.5,9.19-5.5,3.18,0,6.13,1.5,8.86,4.49,2.37,3.08,4.23,6.49,5.57,10.2l.13,.33c4.61,11.45,8.63,23.06,12.08,34.82,3.09,10.11,6.31,20.15,9.66,30.12v.07c.94,2.33,1.41,4.58,1.41,6.78,0,4.07-1.88,6.98-5.64,8.72-1.34,.54-2.64,.8-3.89,.8-2.19,0-4.25-.77-6.17-2.31-1.92-1.54-3.38-3.33-4.36-5.37-.98-2.04-1.76-4.09-2.31-6.17-.56-2.08-1.37-3.59-2.45-4.53-.72-.63-1.7-.94-2.95-.94-.67,0-1.41,.09-2.21,.27-1.34,.22-2.68,.34-4.03,.34-2.06,0-4.76-.29-8.12-.87-.72-.13-1.37-.2-1.95-.2-1.79,0-2.86,.99-3.22,2.95-.72,3.18-1.5,6.33-2.35,9.46-1.79,5.73-4.88,8.59-9.26,8.59Zm23.41-38.51c1.65,0,3.36-.27,5.1-.8-1.12-6.31-3.24-12.68-6.37-19.12-.36,1.21-.67,2.35-.94,3.42-1.12,4.16-1.84,6.73-2.15,7.72-.85,2.51-1.39,5.23-1.61,8.18,2.5,.4,4.49,.6,5.97,.6Z"/>
        <path class="cls-1" d="M492.24,319.63c-2.28,0-4.47-.94-6.57-2.82-2.06-2.15-3.67-4.79-4.83-7.92l-9.39-19.79c-.49-1.16-1.11-2.07-1.85-2.72s-1.76-.97-3.05-.97h-.54c-2.41,0-3.62,1.03-3.62,3.08l.13,1.14c.49,3.27,.74,6.13,.74,8.59,0,2.64-.36,5.23-1.07,7.78-1.7,5.19-5.03,7.78-10,7.78-2.6,0-4.83-.92-6.71-2.75-1.74-1.7-2.8-3.96-3.15-6.78-.09-1.3-.13-2.59-.13-3.89l.07-3.02c0-1.12-.25-6.84-.74-17.17l-.2-5.3c-.31-4.92-.47-9.73-.47-14.43l.07-7.72c0-4.61-.2-9.15-.6-13.62l-.07-2.01c0-2.59,.6-6.06,1.81-10.4l.2-.74c1.25-4.2,3.98-6.31,8.19-6.31h.87c2.19,0,4.27-.29,6.24-.87,3.89-.94,7.51-1.41,10.87-1.41,8.45,0,16.35,2.53,23.68,7.58,4.83,3.49,8.05,7.98,9.66,13.48,.76,2.6,1.14,5.26,1.14,7.98,0,3.04-.47,6.17-1.41,9.39-2.1,7.51-5.86,13.96-11.27,19.32-1.43,1.34-2.15,2.62-2.15,3.82,0,1.03,.38,2.19,1.14,3.49,2.73,5.01,5.34,10.06,7.85,15.16l2.62,5.17c.71,1.34,1.32,2.73,1.81,4.16,.22,1.07,.34,2.08,.34,3.02,0,3.49-1.61,6.28-4.83,8.39-1.61,.85-3.2,1.27-4.76,1.27Zm-27.37-55.15l1.07-.07c4.2-.54,7.88-2.48,11.04-5.84,3.15-3.35,4.89-7.18,5.2-11.47v-.47c0-3.09-1.37-5.23-4.09-6.44-3.58-1.48-7.27-2.53-11.07-3.15l-1.28-.07c-3.53,0-5.35,2.1-5.43,6.31l-.07,5.44c.04,.8,.07,1.63,.07,2.48h.33c0,.9,.02,1.77,.07,2.62v2.01l-.07,4.49c0,1.7,.39,2.82,1.17,3.35,.78,.54,1.8,.81,3.05,.81Z"/>
      </g>
      <ellipse class="cls-3" cx="449.7" cy="154.77" rx="81.42" ry="51.02"/>
      <g>
        <path class="cls-2" d="M413.06,137.22c3.22,5.33,3.3,10.94,.24,16.84-4.34,6.14-9.35,8.67-15.04,7.59,.35,3.2,1.16,9.08,2.42,17.65-5.38,1.05-9.04,1.68-10.99,1.89-2.11-14.89-3.62-26.77-4.51-35.64-.64-4.95-.95-7.79-.95-8.54,5.14-3.18,11.09-4.7,17.83-4.58,4.67,.11,8.34,1.71,11.01,4.8Zm-16.49,15.45c5.67,.48,8.35-1.03,8.04-4.51-.21-1.45-.97-2.36-2.29-2.71-2.43-.42-4.59-.07-6.47,1.04,.32,2.65,.56,4.71,.71,6.18Z"/>
        <path class="cls-2" d="M435.77,132.27c.35,.48,1.09,2.48,2.2,6.01,3.92,14.29,7.69,26.9,11.3,37.82,0,.35-1.46,1.16-4.39,2.41-2.93,1.25-4.74,1.87-5.43,1.86-.4-.73-1.47-3.81-3.21-9.23-1.88-.15-5.01-.69-9.38-1.63-.43,2.21-.96,5.41-1.61,9.58-1.5,.04-5.12-.83-10.85-2.6-.01-.64,.92-5.2,2.8-13.71,2.55-11.45,4.57-21.18,6.05-29.21,.38-.35,2.28-.64,5.7-.85,3.42-.21,5.69-.36,6.82-.45Zm-5.61,15.59c-.7,4.98-1.34,9.16-1.92,12.53,2.28,.39,4,.54,5.13,.46-.88-4.19-1.49-7.07-1.82-8.65-.34-1.58-.8-3.02-1.38-4.34Z"/>
        <path class="cls-2" d="M477.72,135.93c1.81,.98,3,2.36,3.59,4.16,.53,1.76,.73,3.46,.61,5.11,0,2.41-.64,4.59-1.91,6.56-1.29,2.32-3.76,5.39-7.38,9.2,3.19,2.93,5.57,5.4,7.15,7.41,1.58,2.01,2.49,3.31,2.73,3.89-3.32,3.63-6,5.77-8.03,6.43-2.36-3.41-4.42-6.16-6.17-8.25-1.86-2.25-3.85-3.86-5.97-4.84-.05,1.48-.07,6.26-.07,14.35-5.94-.17-9.51-.84-10.72-2,0-4.07,.23-17.06,.68-38.97,5.54-2.26,8.79-3.47,9.75-3.63,2.85-.79,4.76-1.19,5.75-1.19,4.07-.28,7.4,.31,10,1.76Zm-13.03,8.56c-.75,.13-1.66,.6-2.73,1.39,.13,.94,.25,4.92,.35,11.93,2.43-2.27,4.4-4.21,5.9-5.83,1.8-2.32,2-4.4,.62-6.23-.92-1.2-2.3-1.62-4.14-1.26Z"/>
        <path class="cls-2" d="M505.92,132.27c.35,.48,1.09,2.48,2.2,6.01,3.92,14.29,7.69,26.9,11.3,37.82,0,.35-1.46,1.16-4.39,2.41-2.93,1.25-4.74,1.87-5.43,1.86-.4-.73-1.47-3.81-3.21-9.23-1.88-.15-5.01-.69-9.38-1.63-.43,2.21-.96,5.41-1.61,9.58-1.5,.04-5.12-.83-10.85-2.6-.01-.64,.92-5.2,2.8-13.71,2.55-11.45,4.57-21.18,6.05-29.21,.38-.35,2.28-.64,5.7-.85,3.42-.21,5.69-.36,6.82-.45Zm-5.61,15.59c-.7,4.98-1.34,9.16-1.92,12.53,2.28,.39,4,.54,5.13,.46-.88-4.19-1.49-7.07-1.82-8.65-.34-1.58-.8-3.02-1.38-4.34Z"/>
      </g>
    </g>
  </g>
</svg>