<?xml version="1.0" encoding="UTF-8"?>
<svg id="Layer_1" data-name="Layer 1" xmlns="http://www.w3.org/2000/svg" viewBox="0 0 50 50">
  <defs>
    <style>
      .cls-1 {
        fill: #5349d7;
      }
    </style>
  </defs>
  <path class="cls-1" d="M5,8c-1.1-.02-2.01,.87-2.03,1.97-.02,1.1,.87,2.01,1.97,2.03,.02,0,.04,0,.06,0H45c1.1,.02,2.01-.87,2.03-1.97s-.87-2.01-1.97-2.03c-.02,0-.04,0-.06,0H5Zm0,15c-1.1-.02-2.01,.87-2.03,1.97-.02,1.1,.87,2.01,1.97,2.03,.02,0,.04,0,.06,0H45c1.1,.02,2.01-.87,2.03-1.97,.02-1.1-.87-2.01-1.97-2.03-.02,0-.04,0-.06,0H5Zm0,15c-1.1-.02-2.01,.87-2.03,1.97-.02,1.1,.87,2.01,1.97,2.03,.02,0,.04,0,.06,0H45c1.1,.02,2.01-.87,2.03-1.97s-.87-2.01-1.97-2.03c-.02,0-.04,0-.06,0H5Z"/>
</svg>