<?xml version="1.0" encoding="UTF-8"?>
<svg id="Layer_2" data-name="Layer 2" xmlns="http://www.w3.org/2000/svg" viewBox="0 0 318.38 435.8">
  <defs>
    <style>
      .cls-1 {
        fill: #3d6ef0;
      }

      .cls-2 {
        fill: #5349d7;
      }

      .cls-3 {
        fill: #030810;
      }

      .cls-4 {
        fill: #ffe000;
      }

      .cls-5 {
        fill: #7771ff;
      }

      .cls-6 {
        fill: #f4f4aa;
      }
    </style>
  </defs>
  <g id="Capa_1" data-name="Capa 1">
    <g>
      <path class="cls-5" d="M113.19,65.88c7.72-18.12,17.6-34.46,31.77-47.87,2.84-2.68,6.03-5.11,9.38-7.1,9.53-5.63,13.37-4.65,21.42,1.42,3.87,2.92,6.82,6.74,9.43,10.82,6.88,10.77,11.35,22.6,15.42,34.61,.19,.57,.38,1.26-.58,2.12-29.39-9.48-58.41-7.96-86.85,5.99Z"/>
      <g>
        <path class="cls-3" d="M304.4,363.37c2.18,1.17,4.14,2.06,5.92,3.21,9.14,5.91,10.63,15.08,3.85,23.51-2.62,3.26-5.73,6.03-9.14,8.43-8.06,5.66-17.72,8.14-26.18,13.04-1.94,1.12-4.84,1.61-6.99,1.1-3.95-.93-7.06,.09-10.52,1.81-10.18,5.04-19.47,3.15-27.79-4.39-1.92-1.74-3.98-3.31-6.16-5.12-.84,1.3-1.92,3.09-3.11,4.81-7.69,11.2-17.5,19.4-31.19,22.22-9.42,1.94-18.28,.68-26.44-4.43-2.07-1.29-3.38-1.85-5.49,.12-2.39,2.23-5.67,3.23-8.87,4.02-9.38,2.32-18.64,1.63-27.8-1.22-5.62-1.75-9.82-5.53-13.71-9.83-3.25,2.5-6.24,5.07-9.49,7.25-10.47,7.02-21.95,9.46-34.36,6.93-8.22-1.68-15.16-5.65-20.14-12.47-1.56-2.13-2.99-2.57-5.45-2.1-22.37,4.34-49.67-17.88-38.9-47.18,3.04-8.28,8.66-14.19,17.87-15.48,2.76-.39,3.51-1.35,3.37-4.13-.44-9.11,1.85-17.42,8.75-23.8,2.38-2.2,1.54-4.01,.69-6.37-4.4-12.11-8.92-24.18-11.66-36.82-3.58-16.48-5.91-33.14-6.58-49.99-.25-6.34,.47-12.63,1.86-18.87,1.47-6.57,5.54-10.2,11.88-11.57,9.5-2.05,19.05-2.57,28.64-.67,5.96,1.18,11.91,2.45,18.03,3.72,.99-3.2,.7-6.03,.81-8.81,1.4-38,7.42-75.22,19.55-111.3,8.04-23.95,18.72-46.61,34.98-66.29,4.91-5.94,10.33-11.3,16.67-15.67,2.33-1.61,4.73-3.19,7.29-4.38,7.86-3.66,15.36-3.93,22.75,1.75,6.37,4.9,11.43,10.72,15.54,17.53,6.15,10.17,10.47,21.15,14.21,32.33,8.66,25.89,16.9,51.92,21.64,78.9,3.36,19.18,5.47,38.51,7.47,57.86,.22,2.14-.12,4.4,1.13,6.39,1.92,.79,2.69-.99,3.78-1.8,6.65-5,13.37-9.85,21.11-13.1,3.64-1.53,7.35-2.72,11.28-3.32,9.22-1.4,15.1,2.03,18.05,11.06,3.14,9.62,4.94,19.53,4.74,29.65-.56,27.59-2.94,54.99-9.71,81.86-.21,.85-.28,1.75-.61,2.55-1.3,3.13-.43,4.59,3.03,5.34,19.81,4.28,29.83,30.03,19.1,47.33-1.24,2-2.35,4.08-3.67,6.37Zm-207.17-65.93c-.16,2.84-.27,5.01-.41,7.18-.73,11.54-3.63,22.37-10.21,32.07-3.16,4.66-5.75,4.85-9.49,.42-8.09-9.6-19.99-12.54-31.28-7.72-13.73,5.85-18.69,19.22-11.89,32.16,.87,1.66,1.57,3.17,.04,4.76-1.44,1.5-3.16,1.43-4.79,.5-4.31-2.43-8.62-3.08-13.01-.31-2.85,1.8-4.85,4.35-6.31,7.37-4.63,9.58-2.84,21.99,4.34,30.05,7.29,8.18,19.98,11.64,29.86,8.15,4.69-1.65,5.22-1.62,6.8,2.74,1.52,4.2,4.49,6.94,8.02,9.18,6.12,3.88,12.88,5.14,20.08,4.51,11.05-.98,19.72-6.46,27.4-14.05,4.33-4.27,6.58-4.13,9.85,.88,3.34,5.12,7.96,8.05,13.72,9.28,6.24,1.33,12.55,1.7,18.89,.52,2.61-.49,5-1.52,7.37-2.65,1.78-.84,3.05-1.75,1.56-3.94-.46-.68-.61-1.64-.72-2.49-.27-2.14,.26-4.03,2.56-4.67,2.03-.57,3.29,.65,4.09,2.4,3.61,7.89,10.46,10.7,18.43,11.56,9.39,1.02,17.72-1.84,25.1-7.53,6.34-4.88,11.16-11.04,14.54-18.31,.74-1.58,1.36-3.25,2.32-4.69,2.23-3.3,4.97-3.31,7.31-.02,1.26,1.77,2.07,3.86,3.28,5.66,6.65,9.85,15.86,12.04,26.15,6.26,4.07-2.29,7.56-5.17,9.55-9.57,1.03-2.29,2.36-4.44,5.42-3.37,2.24,.78,2.48,3.13,.97,6.82-.59,1.42-1.93,2.64-1.42,6.42,7.22-8.09,17.02-8.57,24.57-13.71,2.9-1.97,5.6-4.22,7.91-6.86,5.13-5.89,4-11.22-3.09-14.73-.78-.38-1.62-.65-2.46-.89-6.53-1.84-7.03-6.72-3.91-11.74,1.72-2.78,3.48-5.58,4.82-8.56,6.34-14.13-2.26-31.08-17.35-34.25-8.75-1.84-17.35-1.07-25.72,2.11-6.58,2.5-12.73,5.52-17.43,11.15-3.14,3.76-4.86,3.32-6.91-1.18-.85-1.87-2.22-3.22-3.42-4.75-7.58-9.7-13.02-20.21-12.5-32.98,.04-.9-.14-1.72-1.5-2.38-6.59,3.21-13.91,5.22-21.36,7-12.78,3.05-25.81,4.37-38.78,5.97-20.19,2.49-40.47,3.83-61-3.77Zm35.19-69.82c13.2,.84,23.81-.85,34.44-2.14,20.82-2.53,39.44-10.83,57.07-21.79,4.44-2.76,6.06-6.07,5.32-11.37-1.98-14.06-3.36-28.21-5.16-42.3-3.31-25.89-10.09-50.97-18.03-75.77-.88-2.74-2.33-4.28-4.93-5.53-9.86-4.74-20.36-6.35-31.09-7.18-19.56-1.5-37.64,3.53-55.03,12.05-4.96,2.43-8.86,5.28-10.21,10.99-.75,3.17-2.3,6.13-3.3,9.25-11.86,37.35-17.48,75.72-18.63,114.82-.08,2.73,.92,4.68,3.16,6.01,2.06,1.22,4.19,2.34,6.35,3.38,13.42,6.45,27.61,9.57,40.05,9.57Zm105.77,14.12c-.92,7.79-.1,15.78-2.15,23.42-1.44,5.38-1.55,10.05,2.57,14.42,1.58,1.68,2.52,4.1,3.34,6.33,2.79,7.57,5.82,15.06,7.92,22.87,1.39,5.2,1.44,5.22,6.19,3.33,5.1-2.03,10.32-3.62,15.82-3.83,6.57-.26,5.63-.19,7.13-6.19,6.98-27.88,9.86-56.25,9.81-84.96-.01-7.94-1.54-15.62-3.74-23.18-2.08-7.17-4.87-8.92-12.01-7.45-2.54,.52-5.03,1.44-7.45,2.43-9.22,3.75-17.03,9.64-24.44,16.17-2.66,2.34-3.78,4.85-3.65,8.52,.33,9.37,1.29,18.74,.65,28.14Zm-163.01-3.55c-.13-2.84-.16-5.68-.41-8.51-.38-4.31,1.89-9.66-.92-12.67-2.72-2.91-8.17-2.37-12.38-3.48-9.68-2.56-19.36-2.89-29.21-1.02-5.12,.97-8.04,3.4-9,8.74-1.21,6.74-1.42,13.47-.94,20.24,.99,13.74,2.88,27.36,5.65,40.86,2.6,12.68,7.02,24.78,11.38,36.9,.73,2.03,1.36,4.51,4.48,3.16,6-2.6,12.26-3,18.65-2.2,2.32,.29,3.18-.64,3.16-2.85-.05-4.37-.12-8.74-.02-13.11,.25-11.4,1.9-22.32,11.51-30.14,1.65-1.34,1.76-2.99,1.24-4.72-3.02-10.21-2.73-20.74-3.19-31.2ZM113.19,65.88c28.44-13.95,57.46-15.47,86.85-5.99,.96-.86,.77-1.55,.58-2.12-4.07-12.01-8.55-23.85-15.42-34.61-2.61-4.08-5.56-7.9-9.43-10.82-8.05-6.08-11.89-7.05-21.42-1.42-3.36,1.98-6.55,4.42-9.38,7.1-14.17,13.41-24.05,29.75-31.77,47.87Zm-7.34,165.17c.3,8.36,.5,15.91,1.54,23.49,1.64,11.88,3.11,23.78,5.36,35.57,.61,3.22,1.92,5.09,5.57,4.98,3.7-.11,7.41,.33,11.12,.4,4.41,.07,4.71-.17,4.04-4.32-2.84-17.45-4.47-35.04-6.24-52.62-.3-2.99-1.49-4.32-4.33-4.53-5.44-.41-10.75-1.62-17.05-2.97Zm77.01-.94c-5.21,.8-10.16,1.55-15.1,2.32-5,.78-5.07,.79-4.94,6.3,.31,13.53,.68,27.06,1.06,40.59,.09,3.06,.4,6.11,.46,9.16,.07,3.45,1.76,4.54,5.02,3.95,4.29-.77,8.6-1.55,12.93-2.03,3.3-.36,3.8-2.24,3.48-4.97-1.4-11.75-.55-23.57-.94-35.35-.22-6.53,.14-13.09-1.97-19.98Zm9.6,58.3c5.81-.97,10.01-1.96,14.21-3.16,3.86-1.11,5.03-3.16,4.94-7.06-.36-15.28-.42-30.57-.6-45.86-.04-3.28-.09-6.55-.14-9.83-.03-2.13-1.14-2.66-2.98-1.9-5.04,2.08-10.04,4.27-15.11,6.25-2.1,.82-2.43,2.29-2.18,4.16,1.95,14.32,1.61,28.74,1.85,43.14,.08,4.56,.01,9.12,.01,14.27Zm-58.34-53.86c1.6,17.67,3.26,34.15,5.69,50.54,1.67,11.26,1.78,11.08,13.06,9.45,3.57-.51,4.79-1.79,4.47-5.36-.82-9.13-1.28-18.27-1.21-27.45,.06-7.64-.16-15.28-.41-22.91-.14-4.21-.43-4.31-4.59-4.28-5.43,.04-10.86,0-17.02,0Zm-28.47,57.8c-1.24-7.79-2.51-15.04-3.52-22.32-1.76-12.74-3.21-25.51-3.73-38.37-.07-1.84-.21-3.46-2.18-4.29-4.37-1.83-8.72-3.71-13.24-5.63-.32,.91-.7,1.48-.69,2.05,.33,16.32-.14,32.63,3.97,48.73,2.69,10.52,9.08,16.32,19.38,19.83Zm113.2-15.1c2.07,.65,2.82-.28,3.64-.91,5.37-4.1,6.35-10.13,7.1-16.26,1.99-16.3,1.18-32.65,.91-48.98-.01-.9-.18-1.71-1.42-2.08-2.64,1.6-5.34,3.44-8.23,4.92-2.47,1.26-3.22,2.86-3.11,5.69,.53,14.15,.81,28.32,1.1,42.48,.11,5.13,.02,10.27,.02,15.15Zm-137.24,3.08c-5.64,4.55-7.56,9.92-8.16,15.91-.61,6.09,.17,12.29-.57,18.29-.91,7.35,2.12,11.91,7.86,15.46,.32,.2,.79,.13,1.19,.19,6.89-9.25,8.16-25.41,7.82-34.48-.09-2.47-.96-4.5-3.01-6.21-2.53-2.12-4.11-5.04-5.13-9.16Zm147.85-.36c-.71,.91-1.26,1.34-1.45,1.9-3.76,10.74,2.23,31.49,11.08,38.52,1.63,1.3,4.46,.17,4.91-2.16,.24-1.23,0-2.61-.28-3.86-2.2-9.8-5.86-19.12-9.73-28.34-.9-2.15-2-4.36-4.53-6.06Z"/>
        <path class="cls-6" d="M97.23,297.44c20.53,7.6,40.8,6.27,61,3.77,12.96-1.6,26-2.92,38.78-5.97,7.45-1.78,14.77-3.79,21.36-7,1.35,.66,1.53,1.48,1.5,2.38-.52,12.77,4.92,23.27,12.5,32.98,1.2,1.53,2.57,2.89,3.42,4.75,2.05,4.49,3.77,4.94,6.91,1.18,4.7-5.63,10.85-8.65,17.43-11.15,8.37-3.18,16.97-3.95,25.72-2.11,15.09,3.17,23.68,20.12,17.35,34.25-1.33,2.97-3.09,5.77-4.82,8.56-3.12,5.03-2.62,9.9,3.91,11.74,.84,.24,1.68,.51,2.46,.89,7.09,3.51,8.22,8.84,3.09,14.73-2.31,2.65-5.01,4.89-7.91,6.86-7.55,5.14-17.35,5.62-24.57,13.71-.51-3.78,.83-4.99,1.42-6.42,1.52-3.69,1.28-6.04-.97-6.82-3.06-1.07-4.39,1.08-5.42,3.37-1.99,4.41-5.48,7.28-9.55,9.57-10.29,5.78-19.5,3.6-26.15-6.26-1.22-1.8-2.03-3.89-3.28-5.66-2.33-3.29-5.07-3.28-7.31,.02-.97,1.43-1.59,3.1-2.32,4.69-3.38,7.27-8.2,13.43-14.54,18.31-7.38,5.69-15.71,8.54-25.1,7.53-7.97-.86-14.82-3.68-18.43-11.56-.8-1.75-2.07-2.97-4.09-2.4-2.29,.64-2.83,2.53-2.56,4.67,.11,.85,.26,1.81,.72,2.49,1.49,2.19,.22,3.1-1.56,3.94-2.37,1.13-4.76,2.16-7.37,2.65-6.34,1.18-12.66,.81-18.89-.52-5.76-1.23-10.38-4.17-13.72-9.28-3.27-5.02-5.52-5.16-9.85-.88-7.68,7.59-16.35,13.07-27.4,14.05-7.2,.64-13.96-.62-20.08-4.51-3.53-2.24-6.5-4.98-8.02-9.18-1.58-4.36-2.11-4.4-6.8-2.74-9.89,3.49-22.57,.03-29.86-8.15-7.18-8.06-8.97-20.47-4.34-30.05,1.46-3.02,3.46-5.57,6.31-7.37,4.39-2.77,8.7-2.11,13.01,.31,1.63,.92,3.35,1,4.79-.5,1.52-1.59,.83-3.1-.04-4.76-6.81-12.93-1.84-26.3,11.89-32.16,11.29-4.81,23.2-1.87,31.28,7.72,3.74,4.44,6.33,4.24,9.49-.42,6.59-9.7,9.48-20.53,10.21-32.07,.14-2.17,.25-4.34,.41-7.18Zm11.99,55.44c-15.44-.7-31.4,9.16-37.46,22.7-.9,2.01-1.74,4.01-1.51,6.27,.17,1.69,1.09,2.87,2.79,3.2,1.42,.27,2.58-.38,3.33-1.56,.45-.72,.69-1.58,.96-2.4,2.64-7.91,8.16-13.29,15.28-17.16,12.47-6.77,21.13-5.26,30.81,5.27,1.43,1.56,2.92,2.91,5.02,1.59,2.37-1.49,1.91-3.76,.82-5.79-1.25-2.33-3.24-4.07-5.21-5.82-3.11-2.77-3.08-4-.2-6.68,2.39-2.22,5.34-2.97,8.43-2.98,2.16,0,4.32,.51,6.47,.78,2.14,.27,4.07-.07,4.59-2.52,.5-2.37-1.04-3.49-3.03-4.34-7.52-3.21-18.35-.86-23.16,5.89-2.39,3.36-4.6,4.9-7.93,3.55Zm95.59-9.28c-9.19-.05-15.7,1.93-20.87,5.62-1.78,1.27-3.44,2.68-4.61,4.57-1.26,2.03-1.75,4.15,.47,5.79,2.01,1.48,3.76,.48,5.04-1.25,1.89-2.54,4.42-4.15,7.23-5.41,9.74-4.38,21.7-1.98,29.45,5.93,2.3,2.35,4.13,5.03,5.8,7.86,1.11,1.89,2.9,2.76,4.99,1.54,1.8-1.05,1.79-2.88,1.25-4.64-.32-1.02-.85-2.01-1.42-2.92-6.92-10.92-16.81-16.7-27.33-17.09Z"/>
        <path class="cls-4" d="M132.41,227.62c-12.44,0-26.63-3.13-40.05-9.57-2.16-1.04-4.29-2.16-6.35-3.38-2.24-1.33-3.24-3.27-3.16-6.01,1.15-39.1,6.77-77.46,18.63-114.82,.99-3.12,2.55-6.09,3.3-9.25,1.35-5.71,5.25-8.55,10.21-10.99,17.39-8.53,35.47-13.56,55.03-12.05,10.73,.82,21.24,2.44,31.09,7.18,2.6,1.25,4.06,2.79,4.93,5.53,7.93,24.8,14.72,49.88,18.03,75.77,1.8,14.09,3.19,28.24,5.16,42.3,.74,5.3-.88,8.61-5.32,11.37-17.63,10.96-36.25,19.26-57.07,21.79-10.63,1.29-21.24,2.97-34.44,2.14Zm21.1-46.26c15.18,.12,29.35-5.93,39.16-16.71,17.05-18.74,14.69-46.48-5.26-61.89-22.12-17.08-56.71-12.01-72.97,10.69-13.49,18.83-9.84,43.68,8.56,57.79,8.97,6.88,19.23,10.1,30.51,10.13Z"/>
        <path class="cls-5" d="M238.18,241.73c.65-9.4-.32-18.77-.65-28.14-.13-3.66,1-6.18,3.65-8.52,7.41-6.53,15.22-12.42,24.44-16.17,2.41-.98,4.9-1.9,7.45-2.43,7.14-1.47,9.92,.29,12.01,7.45,2.2,7.57,3.73,15.25,3.74,23.18,.05,28.71-2.83,57.08-9.81,84.96-1.5,5.99-.56,5.93-7.13,6.19-5.5,.22-10.72,1.8-15.82,3.83-4.76,1.9-4.8,1.88-6.19-3.33-2.09-7.81-5.13-15.3-7.92-22.87-.82-2.23-1.76-4.65-3.34-6.33-4.12-4.37-4.02-9.03-2.57-14.42,2.05-7.64,1.23-15.63,2.15-23.42Z"/>
        <path class="cls-5" d="M75.17,238.18c.47,10.46,.18,20.99,3.19,31.2,.51,1.73,.4,3.38-1.24,4.72-9.61,7.82-11.26,18.74-11.51,30.14-.1,4.37-.03,8.74,.02,13.11,.02,2.21-.84,3.14-3.16,2.85-6.38-.8-12.64-.41-18.65,2.2-3.12,1.35-3.75-1.13-4.48-3.16-4.36-12.12-8.78-24.22-11.38-36.9-2.77-13.5-4.66-27.12-5.65-40.86-.49-6.77-.27-13.5,.94-20.24,.96-5.35,3.89-7.77,9-8.74,9.85-1.88,19.53-1.54,29.21,1.02,4.21,1.11,9.66,.57,12.38,3.48,2.81,3.01,.55,8.36,.92,12.67,.25,2.83,.28,5.67,.41,8.51Z"/>
        <path class="cls-5" d="M105.84,231.05c6.3,1.35,11.61,2.56,17.05,2.97,2.84,.21,4.03,1.54,4.33,4.53,1.77,17.57,3.4,35.17,6.24,52.62,.68,4.16,.38,4.4-4.04,4.32-3.71-.06-7.42-.5-11.12-.4-3.65,.11-4.95-1.76-5.57-4.98-2.25-11.79-3.72-23.69-5.36-35.57-1.05-7.58-1.24-15.13-1.54-23.49Z"/>
        <path class="cls-5" d="M182.85,230.11c2.12,6.89,1.76,13.45,1.97,19.98,.4,11.78-.45,23.6,.94,35.35,.32,2.73-.18,4.6-3.48,4.97-4.33,.48-8.64,1.25-12.93,2.03-3.26,.59-4.95-.5-5.02-3.95-.06-3.06-.38-6.11-.46-9.16-.38-13.53-.75-27.06-1.06-40.59-.13-5.5-.06-5.51,4.94-6.3,4.94-.77,9.89-1.52,15.1-2.32Z"/>
        <path class="cls-5" d="M192.45,288.41c0-5.15,.07-9.71-.01-14.27-.24-14.39,.1-28.81-1.85-43.14-.25-1.87,.08-3.34,2.18-4.16,5.08-1.98,10.07-4.17,15.11-6.25,1.85-.76,2.95-.23,2.98,1.9,.05,3.28,.1,6.55,.14,9.83,.18,15.29,.24,30.57,.6,45.86,.09,3.9-1.08,5.95-4.94,7.06-4.2,1.21-8.4,2.2-14.21,3.16Z"/>
        <path class="cls-5" d="M134.11,234.55c6.16,0,11.59,.03,17.02,0,4.16-.03,4.45,.07,4.59,4.28,.25,7.63,.47,15.28,.41,22.91-.07,9.18,.39,18.33,1.21,27.45,.32,3.57-.9,4.85-4.47,5.36-11.28,1.63-11.39,1.8-13.06-9.45-2.43-16.39-4.09-32.87-5.69-50.54Z"/>
        <path class="cls-5" d="M105.64,292.35c-10.3-3.51-16.7-9.31-19.38-19.83-4.11-16.11-3.64-32.41-3.97-48.73-.01-.56,.37-1.14,.69-2.05,4.51,1.92,8.87,3.8,13.24,5.63,1.97,.83,2.11,2.44,2.18,4.29,.52,12.86,1.96,25.64,3.73,38.37,1.01,7.28,2.28,14.53,3.52,22.32Z"/>
        <path class="cls-5" d="M218.85,277.25c0-4.88,.09-10.02-.02-15.15-.29-14.16-.57-28.32-1.1-42.48-.11-2.82,.64-4.43,3.11-5.69,2.89-1.48,5.59-3.32,8.23-4.92,1.24,.37,1.41,1.18,1.42,2.08,.26,16.34,1.08,32.69-.91,48.98-.75,6.13-1.73,12.16-7.1,16.26-.82,.63-1.57,1.56-3.64,.91Z"/>
        <path class="cls-3" d="M109.21,352.88c3.33,1.35,5.54-.19,7.93-3.55,4.81-6.75,15.64-9.1,23.16-5.89,1.99,.85,3.53,1.98,3.03,4.34-.52,2.44-2.44,2.79-4.59,2.52-2.16-.28-4.32-.79-6.47-.78-3.09,.01-6.04,.76-8.43,2.98-2.88,2.68-2.91,3.91,.2,6.68,1.97,1.75,3.96,3.49,5.21,5.82,1.09,2.03,1.55,4.3-.82,5.79-2.1,1.32-3.59-.03-5.02-1.59-9.68-10.53-18.34-12.04-30.81-5.27-7.12,3.87-12.64,9.25-15.28,17.16-.27,.82-.51,1.68-.96,2.4-.75,1.18-1.91,1.83-3.33,1.56-1.7-.33-2.62-1.5-2.79-3.2-.23-2.26,.61-4.26,1.51-6.27,6.06-13.54,22.02-23.4,37.46-22.7Z"/>
        <path class="cls-3" d="M204.81,343.6c10.52,.4,20.4,6.18,27.33,17.09,.58,.91,1.11,1.89,1.42,2.92,.55,1.76,.55,3.59-1.25,4.64-2.08,1.22-3.87,.35-4.99-1.54-1.67-2.83-3.5-5.51-5.8-7.86-7.74-7.91-19.71-10.32-29.45-5.93-2.81,1.27-5.34,2.88-7.23,5.41-1.29,1.73-3.04,2.73-5.04,1.25-2.22-1.64-1.73-3.76-.47-5.79,1.17-1.88,2.83-3.29,4.61-4.57,5.17-3.69,11.68-5.68,20.87-5.62Z"/>
        <path class="cls-3" d="M153.51,181.35c-11.28-.02-21.54-3.25-30.51-10.12-18.4-14.1-22.04-38.96-8.56-57.79,16.26-22.7,50.85-27.77,72.97-10.69,19.95,15.4,22.31,43.15,5.26,61.89-9.81,10.79-23.99,16.83-39.16,16.71Zm.06-81.7c-8.91,.13-19.35,3.96-28.08,12-18.42,16.97-15.06,44.8,6.79,56.96,18.02,10.03,41.32,6.19,55.12-9.08,14.62-16.17,12.08-39.49-5.71-52.05-7.53-5.32-15.96-7.91-28.12-7.84Z"/>
        <path class="cls-1" d="M153.57,99.65c12.16-.07,20.59,2.52,28.12,7.84,17.79,12.55,20.33,35.88,5.71,52.05-13.8,15.27-37.1,19.1-55.12,9.08-21.85-12.17-25.21-39.99-6.79-56.96,8.72-8.04,19.17-11.87,28.08-12Zm1.01,67.03c9.53-.26,18.08-3.01,25.26-9.39,12.68-11.28,12.92-29.39,.6-41.04-13.8-13.04-38.57-12.49-51.76,1.15-11.49,11.89-10.93,29.05,1.35,40.15,6.98,6.31,15.34,8.92,24.56,9.13Z"/>
        <path class="cls-2" d="M154.58,166.68c-9.22-.21-17.58-2.82-24.56-9.13-12.28-11.1-12.84-28.26-1.35-40.15,13.19-13.64,37.96-14.19,51.76-1.15,12.32,11.65,12.08,29.76-.6,41.04-7.18,6.38-15.73,9.14-25.26,9.39Z"/>
      </g>
    </g>
  </g>
</svg>