<?xml version="1.0" encoding="UTF-8"?>
<svg id="Layer_2" data-name="Layer 2" xmlns="http://www.w3.org/2000/svg" viewBox="0 0 128.29 148.41">
  <defs>
    <style>
      .cls-1 {
        fill: #7771FF;
      }
    </style>
  </defs>
  <g id="Capa_1" data-name="Capa 1">
    <path class="cls-1" d="M92.48,1.16c-13.52,9.63-27.17,19.13-40.44,29.08C41.54,22.14,30.88,14.27,19.7,7.12c-4.72-3.02-11.57,1.55-8.86,7.16,5.69,11.78,11.36,23.56,16.99,35.37-9.37,8.09-18.36,16.61-26.64,25.97-2.94,3.32,.04,8.58,4.02,8.97,13.91,1.36,27.73,3.29,41.49,5.51,8.31,18.16,16.44,36.4,24.1,54.86,2.23,5.38,11.54,4.28,11.57-1.91,.09-15.55,.56-31.01,1.72-46.35,13.38,2.51,26.76,5.1,40.17,7.56,4.1,.75,5.76-6.21,1.68-7.19-.87-.21-1.75-.41-2.62-.62,6.8-4.03-3.17-14.68-8.92-18.59-8.83-6-17.38-12.38-25.82-18.91,2.9-17.26,7.05-34.35,12.96-51.2,1.97-5.61-4.4-9.9-9.06-6.58ZM31.24,29.38c3.72,2.73,7.4,5.51,11.04,8.34-1.7,1.33-3.37,2.69-5.05,4.04-1.99-4.13-4-8.26-6-12.39Zm44.22,34.87c-1.04,6.89-1.88,13.82-2.56,20.77-5.63-1.18-11.26-2.33-16.9-3.43-4.55-9.83-9.16-19.63-13.82-29.4,3.03-2.47,6.11-4.89,9.21-7.28,7.19,5.75,14.31,11.58,21.51,17.35,.84,.68,1.72,1.32,2.56,1.99Zm-58.17,10.67c4.98-5.12,10.14-10.04,15.5-14.74,2.95,6.24,5.92,12.47,8.83,18.73-8.09-1.45-16.2-2.79-24.33-3.99Zm53.58,39.64c-3.25-7.38-6.55-14.73-9.9-22.07,3.7,.65,7.4,1.31,11.09,1.98-.52,6.68-.92,13.38-1.19,20.09Zm28.56-32.35c2.65,1.75,5.3,3.48,7.96,5.21,1.23,.84,2.46,1.68,3.7,2.52,.39,.48,.74,.87,1.08,1.24-.35,.82-.36,1.71-.18,2.58-9.02-2.12-18.06-4.18-27.11-6.16,.47-4.94,1.01-9.86,1.65-14.77,4.26,3.2,8.57,6.34,12.91,9.38ZM61.3,37.45c7.84-5.77,15.8-11.4,23.78-16.98-2.96,9.91-5.33,19.94-7.26,30.05-5.51-4.36-11-8.73-16.52-13.07Z"/>
  </g>
</svg>